<svg width="288" height="63" viewBox="0 0 288 63" fill="none" xmlns="http://www.w3.org/2000/svg">
<path d="M16.2506 0.711426L9.17427 15.9027C8.77466 16.756 8.40836 17.4252 8.07535 17.9271C7.74235 18.4123 7.32609 18.7971 6.85989 19.0648C6.39368 19.3325 5.79427 19.4496 5.09496 19.4496C4.34571 19.4496 3.5465 19.3492 2.71398 19.1651V17.1742C3.26344 17.3081 3.82955 17.375 4.44561 17.375C5.06167 17.375 5.56117 17.191 5.91083 16.8229C6.27713 16.4548 6.66009 15.8358 7.04304 14.9825L7.35939 14.2798L0 0.711426H3.06364L8.60816 11.5528L13.5366 0.711426H16.2506Z" fill="white"/>
<path d="M16.8203 18.964V16.9564C18.2356 17.3746 19.5176 17.5754 20.6665 17.5754C21.9652 17.5754 22.9143 17.4248 23.5303 17.1404C24.1464 16.856 24.4295 16.2872 24.4295 15.4506V14.5639C24.4295 13.8612 24.1298 13.3928 23.5137 13.1586C22.8976 12.9243 22.0318 12.8072 20.9329 12.8072H19.3678V11.0338H20.4501C21.5989 11.0338 22.4814 10.8999 23.0808 10.6323C23.6802 10.3646 23.9799 9.89612 23.9799 9.21017V8.35691C23.9799 7.36981 22.8477 6.88463 20.5833 6.88463C19.4011 6.88463 18.2356 7.00174 17.1034 7.21924V5.37889C18.1856 5.21158 19.3345 5.12793 20.55 5.12793C21.9985 5.12793 23.1307 5.21158 23.9466 5.36216C24.7625 5.51273 25.3952 5.79715 25.8447 6.21541C26.3109 6.63367 26.544 7.30289 26.544 8.2398V9.34401C26.544 9.94631 26.3276 10.4482 25.878 10.833C25.4285 11.2178 24.8624 11.4688 24.1631 11.5859V11.703C26.1111 12.0042 27.0768 12.8574 27.0768 14.2293V15.6514C27.0768 16.3039 26.9436 16.8727 26.6939 17.3746C26.4441 17.8766 26.1111 18.2614 25.6949 18.529C25.1288 18.8971 24.4128 19.1313 23.5636 19.2652C22.6978 19.399 21.7321 19.466 20.6665 19.466C19.5509 19.4492 18.2689 19.2986 16.8203 18.964Z" fill="white"/>
<path d="M31.0039 5.41211H33.5514V11.1339H40.2947V5.41211H42.8422V19.1813H40.2947V12.991H33.5514V19.1646H31.0039V5.41211Z" fill="white"/>
<path d="M48.4512 19.0812C47.7352 18.8302 47.2357 18.3952 46.9193 17.7762C46.603 17.1571 46.4531 16.2537 46.4531 15.0658C46.4531 14.0285 46.603 13.2088 46.886 12.6399C47.1691 12.0711 47.6852 11.6528 48.3845 11.4019C49.0839 11.1509 50.0995 11.0338 51.3982 11.0338H55.4942V8.8421C55.4942 8.32345 55.3943 7.93865 55.1945 7.65423C54.9947 7.38654 54.6617 7.18578 54.2121 7.06867C53.7459 6.95155 53.0799 6.90136 52.1808 6.90136C50.7655 6.90136 49.2004 7.01847 47.4854 7.23597V5.37889C49.3503 5.21158 51.0486 5.12793 52.5471 5.12793C54.1289 5.12793 55.2944 5.24504 56.0603 5.47927C56.8096 5.7135 57.3257 6.13176 57.6254 6.71733C57.9085 7.30289 58.0417 8.22307 58.0417 9.44439V19.1648H55.5774V17.8598C55.3776 18.9306 53.9957 19.4492 51.4482 19.4492C50.1495 19.4492 49.1505 19.3321 48.4512 19.0812ZM51.8811 17.7762C52.7969 17.7762 53.5961 17.7093 54.2288 17.5754C55.0779 17.4081 55.4942 17.0066 55.4942 16.3875V12.6232H51.5647C50.7489 12.6232 50.1661 12.6901 49.8165 12.8072C49.4502 12.9243 49.2171 13.1586 49.1172 13.5099C49.0006 13.8445 48.9507 14.3966 48.9507 15.1662C48.9507 15.8522 49.0173 16.3708 49.1505 16.7389C49.2837 17.107 49.5168 17.3746 49.8498 17.5419C50.1828 17.7093 50.6989 17.7762 51.3816 17.7762H51.8811Z" fill="white"/>
<path d="M61.957 15.2499V9.81247C61.957 8.13942 62.4399 6.95155 63.3889 6.21541C64.338 5.47927 65.8865 5.12793 68.0177 5.12793C70.0324 5.12793 71.4976 5.47927 72.3967 6.18195C73.2958 6.88463 73.7454 8.10596 73.7454 9.8292V12.8741H64.5545V14.932C64.5545 15.8856 64.8875 16.5716 65.5368 16.9731C66.2028 17.3914 67.2185 17.5921 68.6005 17.5921C69.8992 17.5921 71.4477 17.3579 73.2126 16.9062V18.8637C71.481 19.2485 69.8326 19.4325 68.2675 19.4325C64.055 19.4492 61.957 18.0439 61.957 15.2499ZM71.1812 11.1844V9.0094C71.1812 8.17288 70.9315 7.60404 70.432 7.28616C69.9325 6.96828 69.0833 6.81771 67.8679 6.81771C66.7023 6.81771 65.8532 6.96828 65.3204 7.28616C64.7876 7.60404 64.5212 8.17288 64.5212 9.0094V11.1676H71.1812V11.1844Z" fill="white"/>
<path d="M81.0697 7.28592H76.2578V5.41211H88.3958V7.28592H83.6172V19.1813H81.0697V7.28592Z" fill="white"/>
<path d="M90.9453 15.2499V9.81247C90.9453 8.13942 91.4282 6.95155 92.3772 6.21541C93.3263 5.47927 94.8748 5.12793 97.006 5.12793C99.0207 5.12793 100.486 5.47927 101.385 6.18195C102.284 6.88463 102.734 8.10596 102.734 9.8292V12.8741H93.5427V14.932C93.5427 15.8856 93.8758 16.5716 94.5251 16.9731C95.1911 17.3914 96.2068 17.5921 97.5888 17.5921C98.8875 17.5921 100.436 17.3579 102.201 16.9062V18.8637C100.469 19.2485 98.8209 19.4325 97.2557 19.4325C93.0432 19.4492 90.9453 18.0439 90.9453 15.2499ZM100.17 11.1844V9.0094C100.17 8.17288 99.9198 7.60404 99.4203 7.28616C98.9208 6.96828 98.0716 6.81771 96.8561 6.81771C95.6906 6.81771 94.8415 6.96828 94.3087 7.28616C93.7758 7.60404 93.5094 8.17288 93.5094 9.0094V11.1676H100.17V11.1844Z" fill="white"/>
<path d="M111.742 19.1144V16.9227C112.009 16.9729 112.275 17.0063 112.541 17.0063C113.357 17.0063 114.007 16.4208 114.473 15.2329C114.956 14.045 115.189 11.8533 115.189 8.64109V5.41211H124.496V19.1813H121.949V7.08516H117.453V9.07609C117.453 12.2047 117.087 14.6808 116.354 16.4877C115.622 18.2946 114.356 19.198 112.558 19.198C112.292 19.198 112.009 19.1646 111.742 19.1144Z" fill="white"/>
<path d="M141.163 5.41211V19.1813H138.615V9.00916L131.489 19.1646H128.941V5.41211H131.489V15.9021L138.765 5.41211H141.163Z" fill="white"/>
<path d="M152.251 5.41211H158.245C159.477 5.41211 160.46 5.47903 161.192 5.62961C161.925 5.76345 162.474 6.01441 162.807 6.34902C163.124 6.6669 163.34 7.00151 163.423 7.35285C163.523 7.68746 163.557 8.17264 163.557 8.77494V9.24339C163.557 9.97953 163.373 10.5316 162.99 10.8997C162.607 11.2678 161.975 11.5355 161.092 11.7195V11.8366C163.273 12.2214 164.372 13.1751 164.372 14.7143V15.5341C164.372 16.471 164.189 17.1904 163.823 17.709C163.457 18.2277 162.841 18.6125 161.991 18.83C161.142 19.0642 159.96 19.1646 158.428 19.1646H152.234V5.41211H152.251ZM158.478 11.2009C159.227 11.2009 159.794 11.1339 160.177 11.0168C160.559 10.8997 160.809 10.6989 160.942 10.4145C161.076 10.1468 161.142 9.71184 161.142 9.14301V8.9757C161.142 8.45706 161.076 8.08899 160.926 7.83803C160.793 7.58707 160.526 7.41977 160.127 7.31938C159.744 7.219 159.161 7.16881 158.395 7.16881H154.799V11.2009H158.478ZM158.595 17.3242C159.477 17.3242 160.143 17.274 160.609 17.1569C161.059 17.0398 161.375 16.8558 161.542 16.6048C161.708 16.3538 161.792 15.969 161.792 15.4504V14.5302C161.792 14.0618 161.592 13.6602 161.192 13.3424C160.776 13.0412 159.96 12.8906 158.728 12.8906H154.799V17.3242H158.595Z" fill="white"/>
<path d="M168.298 5.41211H170.895V10.3978H173.559C174.725 10.3978 175.657 10.4814 176.34 10.6488C177.023 10.8161 177.539 11.1172 177.855 11.5522C178.171 11.9705 178.338 12.5728 178.338 13.3591V16.2033C178.338 18.1942 176.673 19.198 173.326 19.198H168.281V5.41211H168.298ZM173.16 17.525C173.709 17.525 174.275 17.4413 174.858 17.2908C175.524 17.1234 175.857 16.6383 175.857 15.8352V14.112C175.857 13.5599 175.79 13.1416 175.641 12.8572C175.491 12.5728 175.241 12.372 174.875 12.2549C174.508 12.1378 173.959 12.0876 173.226 12.0876H170.879V17.525H173.16ZM180.519 5.41211H183.067V19.1813H180.519V5.41211Z" fill="white"/>
<path d="M194.173 0.710938H200.167C201.016 0.710938 201.699 0.727668 202.215 0.761129C202.731 0.79459 203.281 0.878242 203.863 1.01209C204.463 1.14593 204.946 1.3467 205.329 1.61438C205.695 1.88207 206.011 2.23341 206.278 2.70187C206.527 3.13686 206.644 3.68896 206.644 4.35818V8.18946C206.644 9.72867 206.061 10.8329 204.879 11.5021C203.697 12.1713 201.965 12.5059 199.651 12.5059H196.904V19.1647H194.156V0.710938H194.173ZM200.034 10.7827C201.216 10.7827 202.182 10.5652 202.898 10.1302C203.614 9.69521 203.98 9.00926 203.98 8.05562V4.69279C203.98 4.17415 203.847 3.75589 203.58 3.42128C203.314 3.08667 202.931 2.85244 202.448 2.7186C201.982 2.60148 201.582 2.53456 201.266 2.48437C200.95 2.45091 200.517 2.43418 200 2.43418H196.92V10.766H200.034V10.7827Z" fill="white"/>
<path d="M213.222 19.3322C212.623 19.2486 212.007 19.0645 211.408 18.7801C210.792 18.4957 210.325 18.044 210.042 17.4082C209.759 16.7725 209.609 15.9192 209.609 14.8317V10.0468C209.609 9.19355 209.709 8.44068 209.926 7.80492C210.142 7.16916 210.409 6.65052 210.742 6.29918C211.025 5.9813 211.458 5.73034 212.024 5.54631C212.59 5.36227 213.189 5.24516 213.789 5.19497C214.471 5.16151 215.171 5.14478 215.903 5.14478C216.885 5.14478 217.618 5.16151 218.118 5.2117C218.617 5.26189 219.15 5.36227 219.716 5.51285C220.299 5.68015 220.748 5.93111 221.081 6.28245C221.398 6.61706 221.681 7.11897 221.897 7.75473C222.097 8.42395 222.214 9.19355 222.214 10.0635V14.8485C222.214 16.4546 221.847 17.6424 221.115 18.3786C220.815 18.6797 220.382 18.914 219.816 19.098C219.25 19.282 218.667 19.3824 218.068 19.4326C217.352 19.4661 216.636 19.4828 215.92 19.4828C214.738 19.4493 213.822 19.4159 213.222 19.3322ZM217.668 17.7261C218.034 17.6926 218.384 17.5923 218.717 17.4082C219.05 17.2576 219.3 17.0067 219.433 16.6553C219.566 16.304 219.649 15.8188 219.649 15.1831V9.61181C219.649 8.75856 219.55 8.13953 219.333 7.75473C219.133 7.36993 218.767 7.11897 218.267 6.98513C217.768 6.86802 216.985 6.80109 215.936 6.80109C214.887 6.80109 214.105 6.86802 213.605 6.98513C213.106 7.10224 212.756 7.36993 212.54 7.75473C212.34 8.13953 212.223 8.75856 212.223 9.61181V15.1831C212.223 15.8021 212.29 16.304 212.44 16.6553C212.573 17.0067 212.823 17.2576 213.156 17.4082C213.489 17.5755 213.839 17.6759 214.205 17.7261C214.554 17.7596 215.137 17.7763 215.936 17.7763C216.736 17.7763 217.302 17.7596 217.668 17.7261Z" fill="white"/>
<path d="M229.675 19.3989C229.258 19.3655 228.759 19.2651 228.209 19.1145C227.627 18.9639 227.177 18.7297 226.844 18.4285C226.511 18.1274 226.245 17.6757 226.028 17.0901C225.795 16.5213 225.695 15.8186 225.695 14.9653V9.896C225.695 8.3568 225.995 7.25259 226.578 6.6001C226.894 6.2153 227.227 5.93088 227.56 5.73011C227.893 5.52935 228.326 5.3955 228.842 5.31185C229.358 5.2282 229.841 5.17801 230.257 5.16128C230.674 5.14454 231.256 5.11108 232.006 5.11108C233.304 5.11108 234.603 5.24493 235.919 5.52935V7.40316C234.403 7.01836 233.005 6.83432 231.706 6.83432C230.724 6.83432 230.008 6.90125 229.542 7.05182C229.075 7.18566 228.759 7.45335 228.576 7.82142C228.393 8.18949 228.309 8.75833 228.309 9.5112V15.1494C228.309 15.8521 228.409 16.3707 228.609 16.722C228.809 17.0734 229.159 17.3076 229.691 17.4415C230.224 17.5753 230.973 17.6589 232.006 17.6589C233.388 17.6589 234.753 17.4749 236.135 17.1236V19.0643C234.853 19.332 233.388 19.4658 231.739 19.4658C230.79 19.4491 230.108 19.4324 229.675 19.3989Z" fill="white"/>
<path d="M242.811 19.3989C242.395 19.3655 241.896 19.2651 241.346 19.1145C240.763 18.9639 240.314 18.7297 239.981 18.4285C239.648 18.1274 239.381 17.6757 239.165 17.0901C238.932 16.5213 238.832 15.8186 238.832 14.9653V9.896C238.832 8.3568 239.132 7.25259 239.714 6.6001C240.031 6.2153 240.364 5.93088 240.697 5.73011C241.03 5.52935 241.463 5.3955 241.979 5.31185C242.495 5.2282 242.978 5.17801 243.394 5.16128C243.81 5.14454 244.393 5.11108 245.142 5.11108C246.441 5.11108 247.74 5.24493 249.055 5.52935V7.40316C247.54 7.01836 246.141 6.83432 244.843 6.83432C243.86 6.83432 243.144 6.90125 242.678 7.05182C242.212 7.18566 241.896 7.45335 241.713 7.82142C241.529 8.18949 241.446 8.75833 241.446 9.5112V15.1494C241.446 15.8521 241.546 16.3707 241.746 16.722C241.946 17.0734 242.295 17.3076 242.828 17.4415C243.361 17.5753 244.11 17.6589 245.142 17.6589C246.524 17.6589 247.89 17.4749 249.272 17.1236V19.0643C247.99 19.332 246.524 19.4658 244.876 19.4658C243.927 19.4491 243.244 19.4324 242.811 19.3989Z" fill="white"/>
<path d="M264.706 5.41211V19.1813H262.158V9.00916L255.032 19.1646H252.484V5.41211H255.032V15.9021L262.308 5.41211H264.706Z" fill="white"/>
<path d="M279.009 19.3322C278.409 19.2486 277.793 19.0645 277.194 18.7801C276.578 18.4957 276.112 18.044 275.829 17.4082C275.546 16.7725 275.396 15.9192 275.396 14.8317V13.1754H271.833V19.1817H269.285V5.41246H271.833V11.6195H275.396V10.0468C275.396 9.19355 275.496 8.44068 275.712 7.80492C275.912 7.15243 276.195 6.65052 276.528 6.29918C276.811 5.9813 277.244 5.73034 277.81 5.54631C278.376 5.36227 278.976 5.24516 279.575 5.19497C280.258 5.16151 280.957 5.14478 281.69 5.14478C282.672 5.14478 283.405 5.16151 283.904 5.2117C284.404 5.26189 284.936 5.36227 285.502 5.51285C286.085 5.68015 286.535 5.93111 286.868 6.28245C287.184 6.61706 287.467 7.11897 287.684 7.75473C287.883 8.42395 288 9.19355 288 10.0635V14.8485C288 16.4546 287.634 17.6424 286.901 18.3786C286.601 18.6797 286.168 18.914 285.602 19.098C285.036 19.282 284.453 19.3824 283.854 19.4326C283.138 19.4661 282.422 19.4828 281.706 19.4828C280.507 19.4493 279.608 19.4159 279.009 19.3322ZM283.454 17.7261C283.821 17.6926 284.154 17.5923 284.503 17.4082C284.836 17.2576 285.086 17.0067 285.219 16.6553C285.353 16.304 285.436 15.8188 285.436 15.1831V9.61181C285.436 8.75856 285.336 8.13953 285.12 7.75473C284.92 7.36993 284.553 7.11897 284.054 6.98513C283.554 6.86802 282.772 6.80109 281.723 6.80109C280.674 6.80109 279.891 6.86802 279.392 6.98513C278.892 7.10224 278.543 7.36993 278.326 7.75473C278.126 8.13953 278.01 8.75856 278.01 9.61181V15.1831C278.01 15.8021 278.076 16.304 278.226 16.6553C278.376 17.0067 278.609 17.2576 278.942 17.4082C279.275 17.5755 279.625 17.6759 279.991 17.7261C280.358 17.7596 280.924 17.7763 281.723 17.7763C282.505 17.7763 283.088 17.7596 283.454 17.7261Z" fill="white"/>
<path d="M1.34766 29.5898H24.8102V56.3281H18.4144V34.1223H7.74347V56.3281H1.34766V29.5898Z" fill="white"/>
<path d="M38.4763 56.4467C37.2308 56.2606 35.9348 55.9224 34.6051 55.4658C33.1576 54.9753 32.03 54.1635 31.2052 53.0473C30.3805 51.9311 29.9766 50.5781 29.9766 48.9884V37.2851C29.9766 35.966 30.2627 34.7821 30.8518 33.7335C31.4409 32.685 32.1983 31.8732 33.124 31.2644C33.9487 30.7401 34.9586 30.3004 36.1536 29.9452C37.3486 29.59 38.4763 29.3702 39.5198 29.2856C40.4792 29.2011 41.489 29.1672 42.5494 29.1672C43.8117 29.1672 44.9057 29.218 45.8315 29.3194C46.7572 29.4209 47.8007 29.607 48.9452 29.9114C50.258 30.3004 51.3352 30.757 52.1768 31.3151C53.0183 31.8732 53.7421 32.6342 54.3143 33.6152C54.9202 34.6299 55.2232 35.8476 55.2232 37.2851V48.9884C55.2232 50.4767 54.8361 51.7451 54.0619 52.8275C53.2876 53.8929 52.2104 54.7047 50.8471 55.2628C48.3898 56.2437 45.6295 56.7511 42.5662 56.7511C41.0851 56.7342 39.7218 56.6496 38.4763 56.4467ZM44.9057 52.0664C45.5285 51.9988 46.1512 51.8635 46.8077 51.6774C47.4641 51.4914 47.969 51.1701 48.3056 50.7134C48.6422 50.2568 48.8106 49.6987 48.8106 49.0053V37.2513C48.8106 35.9829 48.3056 35.0865 47.2958 34.5453C46.2859 34.0041 44.7038 33.7335 42.5831 33.7335C40.4455 33.7335 38.8802 33.9872 37.8703 34.5115C36.8605 35.0358 36.3555 35.9321 36.3555 37.2344V48.9715C36.3555 49.6649 36.5407 50.223 36.8941 50.6796C37.2476 51.1362 37.7694 51.4576 38.4594 51.6436C39.1158 51.8296 39.7554 51.9649 40.3613 52.0326C40.9841 52.1002 41.7415 52.1341 42.6335 52.1341C43.5424 52.1679 44.2998 52.1341 44.9057 52.0664Z" fill="white"/>
<path d="M67.5625 51.7447H68.1348C69.2624 51.7447 70.1713 51.305 70.8614 50.4425C71.5515 49.5799 72.0901 47.9902 72.4772 45.6901C72.8643 43.3901 73.0494 40.1091 73.0494 35.881V29.5728H92.4052V51.7447H96.2932V62.5347H90.5538V56.311H73.3019V62.5347H67.5625V51.7447ZM86.0262 51.7954V34.1221H78.8057V37.42C78.8057 44.371 77.9136 49.1571 76.1464 51.7954H86.0262Z" fill="white"/>
<path d="M108.019 56.4467C106.774 56.2606 105.478 55.9224 104.148 55.4658C102.701 54.9753 101.573 54.1635 100.748 53.0473C99.9235 51.9311 99.5195 50.5781 99.5195 48.9884V37.2851C99.5195 35.966 99.8057 34.7821 100.395 33.7335C100.984 32.685 101.741 31.8732 102.667 31.2644C103.492 30.7401 104.502 30.3004 105.697 29.9452C106.892 29.59 108.019 29.3702 109.063 29.2856C110.022 29.2011 111.032 29.1672 112.092 29.1672C113.355 29.1672 114.449 29.218 115.374 29.3194C116.3 29.4209 117.344 29.607 118.488 29.9114C119.801 30.3004 120.878 30.757 121.72 31.3151C122.561 31.8732 123.285 32.6342 123.857 33.6152C124.463 34.6299 124.766 35.8476 124.766 37.2851V48.9884C124.766 50.4767 124.379 51.7451 123.605 52.8275C122.831 53.8929 121.753 54.7047 120.39 55.2628C117.933 56.2437 115.172 56.7511 112.109 56.7511C110.628 56.7342 109.265 56.6496 108.019 56.4467ZM114.466 52.0664C115.088 51.9988 115.711 51.8635 116.367 51.6774C117.024 51.4914 117.529 51.1701 117.865 50.7134C118.202 50.2568 118.37 49.6987 118.37 49.0053V37.2513C118.37 35.9829 117.865 35.0865 116.856 34.5453C115.846 34.0041 114.264 33.7335 112.143 33.7335C110.005 33.7335 108.44 33.9872 107.43 34.5115C106.42 35.0358 105.915 35.9321 105.915 37.2344V48.9715C105.915 49.6649 106.1 50.223 106.454 50.6796C106.807 51.1362 107.329 51.4576 108.019 51.6436C108.676 51.8296 109.315 51.9649 109.921 52.0326C110.544 52.1002 111.301 52.1341 112.193 52.1341C113.085 52.1679 113.843 52.1341 114.466 52.0664Z" fill="white"/>
<path d="M129.938 29.5898H140.592C143.184 29.5898 145.254 29.7759 146.769 30.131C148.283 30.4862 149.394 31.1119 150.084 32.0083C150.774 32.9046 151.128 34.1392 151.128 35.729V40.8027C151.128 42.5615 150.758 43.9314 150 44.9293C149.243 45.9102 148.065 46.6205 146.432 47.0264C144.799 47.4323 142.611 47.6521 139.851 47.6521H136.333V56.345H129.938V29.5898ZM140.406 43.2211C142.073 43.2211 143.251 43.0182 143.924 42.6292C144.597 42.2402 144.951 41.5468 144.951 40.5828V36.304C144.951 35.4246 144.614 34.8496 143.975 34.579C143.352 34.3084 142.123 34.1731 140.322 34.1731H136.35V43.238H140.406V43.2211Z" fill="white"/>
<path d="M163.586 56.4467C162.34 56.2606 161.044 55.9224 159.714 55.4658C158.267 54.9753 157.139 54.1635 156.315 53.0473C155.49 51.9311 155.086 50.5781 155.086 48.9884V37.2851C155.086 35.966 155.372 34.7821 155.961 33.7335C156.55 32.685 157.308 31.8732 158.233 31.2644C159.058 30.7401 160.068 30.3004 161.263 29.9452C162.458 29.59 163.586 29.3702 164.629 29.2856C165.589 29.2011 166.598 29.1672 167.659 29.1672C168.921 29.1672 170.015 29.218 170.941 29.3194C171.867 29.4209 172.91 29.607 174.055 29.9114C175.367 30.3004 176.445 30.757 177.286 31.3151C178.128 31.8732 178.851 32.6342 179.424 33.6152C180.03 34.6299 180.333 35.8476 180.333 37.2851V48.9884C180.333 50.4767 179.945 51.7451 179.171 52.8275C178.397 53.8929 177.32 54.7047 175.956 55.2628C173.499 56.2437 170.739 56.7511 167.676 56.7511C166.194 56.7342 164.831 56.6496 163.586 56.4467ZM170.032 52.0664C170.655 51.9988 171.277 51.8635 171.934 51.6774C172.59 51.4914 173.095 51.1701 173.432 50.7134C173.768 50.2568 173.937 49.6987 173.937 49.0053V37.2513C173.937 35.9829 173.432 35.0865 172.422 34.5453C171.412 34.0041 169.83 33.7335 167.709 33.7335C165.572 33.7335 164.006 33.9872 162.997 34.5115C161.987 35.0358 161.482 35.9321 161.482 37.2344V48.9715C161.482 49.6649 161.667 50.223 162.02 50.6796C162.374 51.1362 162.896 51.4576 163.586 51.6436C164.242 51.8296 164.882 51.9649 165.488 52.0326C166.11 52.1002 166.868 52.1341 167.76 52.1341C168.652 52.1679 169.409 52.1341 170.032 52.0664Z" fill="white"/>
<path d="M185.516 29.5898H203.272V34.1562H191.911V56.3281H185.516V29.5898Z" fill="white"/>
<path d="M214.009 29.5898H221.802L231.396 56.3281H224.916L222.542 49.2757H212.831L210.491 56.3281H204.18L214.009 29.5898ZM221.145 44.9969L217.779 34.9341H217.611L214.245 44.9969H221.145Z" fill="white"/>
<path d="M234.359 29.5898H243.465L250.029 48.7176L256.509 29.5898H265.076V56.3281H259.286V36.5408H259.168L252.436 56.3281H247.319L240.385 36.5408H240.217V56.3281H234.359V29.5898Z" fill="white"/>
<path d="M275.359 46.1977C275.359 45.183 275.561 44.2866 275.982 43.4917C276.386 42.7138 276.941 42.0711 277.614 41.5806C278.102 41.2255 278.742 40.8196 279.499 40.3461C280.997 39.4159 281.755 38.3842 281.755 37.2511V35.3062C281.755 34.5452 281.502 34.0209 280.981 33.7334C280.459 33.4628 279.382 33.3275 277.749 33.3275C276.487 33.3275 273.777 33.6488 269.586 34.3084V29.8097C272.969 29.37 275.948 29.1501 278.523 29.1501C279.92 29.1501 281.048 29.184 281.906 29.2516C282.765 29.3193 283.589 29.4715 284.38 29.6913C285.205 29.945 285.862 30.2664 286.35 30.6553C286.838 31.0612 287.242 31.6024 287.545 32.2789C287.848 33.0231 287.999 33.8517 287.999 34.7481V38.7056C287.999 39.4835 287.78 40.1938 287.326 40.8703C286.871 41.5468 286.282 42.1218 285.542 42.6292C284.616 43.238 283.909 43.6778 283.455 43.9484C281.788 44.9969 280.947 45.9102 280.947 46.7051V48.5654H275.376V46.1977H275.359ZM274.955 50.6456H281.351V56.3281H274.955V50.6456Z" fill="white"/>
</svg>
