<svg width="118" height="14" viewBox="0 0 118 14" fill="none" xmlns="http://www.w3.org/2000/svg">
<path d="M92.0719 2.87351L92.927 0.921478H87.3417L86.6511 2.47377C86.5971 2.61252 86.5005 2.7277 86.3771 2.80056C86.2438 2.87168 86.0958 2.90581 85.9468 2.89977H85.903L85.1959 4.50458H85.744L84.9219 6.40993C84.8972 6.48287 84.8725 6.55582 84.8451 6.62877V6.64336V6.66086L83.0912 10.6846C82.9946 10.9215 82.9425 11.1762 82.9377 11.4344C82.9339 11.6579 82.9859 11.8784 83.0884 12.0734C83.1814 12.2705 83.3178 12.4406 83.4858 12.5695C84.021 12.9931 84.6746 13.212 85.3412 13.191H87.6021C87.8323 13.1647 88.2763 13.1355 88.9258 13.0538H88.9614L89.7836 11.1252H89.6794C89.4167 11.1395 89.1537 11.1019 88.9039 11.0143C88.8364 10.9888 88.7761 10.9457 88.7285 10.8888C88.6927 10.8397 88.6743 10.7788 88.6764 10.7167C88.6785 10.644 88.6943 10.5725 88.723 10.5066L91.3703 4.50458H92.6885L93.423 2.87351H92.0719ZM10.2505 7.91553L10.2313 7.95638L9.2009 10.3578C9.18567 10.3994 9.15766 10.4344 9.12143 10.457C9.05255 10.5035 8.97902 10.5416 8.90219 10.5708C8.69735 10.65 8.48155 10.6924 8.26364 10.6962C8.06244 10.7189 7.86046 10.6617 7.69635 10.5357C7.66347 10.5095 7.6525 10.4891 7.6525 10.4686C7.65266 10.4515 7.65849 10.435 7.66895 10.422L10.5575 3.53002C10.6372 3.40783 10.7545 3.31908 10.8891 3.27909C11.0848 3.20412 11.2924 3.17043 11.5002 3.17988C11.7066 3.16493 11.9128 3.21247 12.0949 3.31702C12.11 3.33428 12.1237 3.35282 12.136 3.37246C12.1385 3.38101 12.1385 3.39017 12.136 3.39872C12.136 3.39872 12.136 3.39872 12.1223 3.43082L11.3796 5.23696H18.4009L18.8585 4.1807L19.6122 2.38623L19.5683 2.35122C19.3244 2.13822 19.0778 1.95439 18.8339 1.76765C18.2498 1.39693 17.6283 1.09743 16.9813 0.874793C15.505 0.433105 13.9762 0.222757 12.443 0.250376H11.8948C10.2304 0.210576 8.57251 0.484196 6.99752 1.05862C5.59162 1.58383 4.72013 2.26077 4.3666 3.08068L1.10811 10.7458C1.02454 10.9473 0.979805 11.1646 0.976562 11.3848C0.981017 11.6721 1.07773 11.9491 1.25062 12.1697C1.46415 12.441 1.72946 12.6609 2.02893 12.8146C2.95249 13.3748 4.38305 13.6316 6.24661 13.6316H6.81116C8.23884 13.6146 9.66333 13.484 11.0727 13.2406C12.5373 13.0043 13.987 12.673 15.4137 12.2485H15.4438L15.9015 11.1572C15.9307 11.058 15.9636 10.9608 16.0002 10.8655L16.3592 10.0601L17.2608 7.91553H10.2505ZM30.462 7.07228L30.5414 6.90012L30.958 5.94599C30.989 5.85225 31.0047 5.75358 31.0046 5.65421C31.0046 5.49368 30.9566 5.33732 30.8676 5.20778C30.7606 5.05105 30.6267 4.91737 30.4729 4.81387C30.3284 4.70628 30.1719 4.61808 30.007 4.55127C29.1849 4.17195 28.0667 3.9677 26.6663 3.9677H25.4331C24.9508 3.9677 24.5205 3.9998 24.0628 4.02606C23.2193 4.10501 22.3861 4.27911 21.5772 4.54543C21.0986 4.70597 20.6388 4.92428 20.2069 5.19611C19.9018 5.37571 19.6537 5.64792 19.4944 5.97809L17.85 9.65456L17.4499 10.5591L17.0005 11.5978C16.9873 11.6561 16.9809 11.7159 16.9813 11.7758C16.9853 11.9879 17.0635 12.1908 17.2005 12.3448C17.3802 12.5453 17.5954 12.7059 17.8336 12.8175C17.8609 12.8341 17.8905 12.8459 17.9213 12.8525L17.9871 12.8759C18.8092 13.2814 19.9301 13.4594 21.3004 13.4594H22.561C23.0184 13.469 23.4759 13.4505 23.9313 13.404C24.775 13.3285 25.609 13.1593 26.4197 12.8992C27.5159 12.514 28.2038 12.0793 28.497 11.5453L29.955 8.20731L30.462 7.07228ZM25.6469 6.19693L23.9121 10.1214L23.4709 11.1718C23.4257 11.2401 23.3583 11.2879 23.2818 11.3061C23.1353 11.3479 22.9839 11.3665 22.8323 11.3615C22.6973 11.3609 22.5629 11.3423 22.4322 11.3061C22.4115 11.2906 22.3922 11.273 22.3747 11.2535C22.3737 11.2468 22.3737 11.2399 22.3747 11.2331L24.0902 7.32613L24.5561 6.26987C24.5726 6.22902 24.6301 6.17942 24.7425 6.14149C24.899 6.09841 25.0604 6.07877 25.2221 6.08313C25.3402 6.08016 25.4581 6.09389 25.5729 6.12398C25.598 6.1335 25.6219 6.14624 25.6441 6.16191C25.6441 6.16191 25.6441 6.1765 25.6441 6.17942C25.6438 6.18936 25.6399 6.1988 25.6331 6.20568L25.6469 6.19693ZM71.3398 5.5871C71.3284 5.40619 71.2744 5.23124 71.183 5.07829C71.0915 4.92535 70.9654 4.79931 70.8163 4.71175C70.7282 4.66937 70.6438 4.61859 70.5642 4.56002C69.8763 4.17195 68.8349 3.97645 67.4674 3.97645H67.0508C66.0398 3.97753 65.0309 4.07518 64.0362 4.26824C63.2154 4.43107 62.408 4.66328 61.6218 4.96268C61.2461 5.10434 60.8799 5.27299 60.5256 5.46747H60.5037L59.7446 7.16565H64.916L65.2613 6.34574C65.2782 6.31067 65.3051 6.28211 65.338 6.26404C65.3957 6.22828 65.4562 6.19801 65.5189 6.17358C65.6632 6.12104 65.8163 6.10117 65.9683 6.11523C66.0386 6.11004 66.1091 6.11004 66.1793 6.11523C66.2262 6.12071 66.2698 6.14341 66.3027 6.17942H66.3191C66.3357 6.18518 66.3508 6.1952 66.363 6.2086C66.363 6.2086 66.363 6.2086 66.363 6.23486C66.3648 6.24841 66.3648 6.26216 66.363 6.27571L65.9491 7.24735L63.965 7.72587L60.9997 8.42032C60.3726 8.57572 59.768 8.82008 59.2019 9.14686C58.8115 9.36625 58.454 9.64654 58.1414 9.97844C57.9486 10.1779 57.7826 10.4047 57.6481 10.6525C57.5336 10.9049 57.471 11.1805 57.4644 11.4607C57.4696 11.6951 57.5294 11.9245 57.6385 12.1282C57.7476 12.332 57.9025 12.5036 58.0893 12.6278V12.657L58.1167 12.6804C58.7772 13.1676 59.8213 13.4215 61.2765 13.4215C61.708 13.3992 62.1375 13.3446 62.5618 13.2581C62.7888 13.2206 63.0131 13.167 63.2333 13.0976C63.3107 13.0721 63.3866 13.0419 63.4607 13.0072L63.4004 13.1676H68.1224L71.2521 6.01018C71.3099 5.87764 71.3398 5.73324 71.3398 5.5871ZM64.461 10.7225C64.4285 10.758 64.3893 10.7859 64.3459 10.8042C64.2352 10.8545 64.1206 10.8945 64.0034 10.9238L63.8609 10.9588H63.817H63.8033C63.5216 10.9899 63.2373 10.9385 62.9811 10.81C62.9455 10.7898 62.9154 10.7601 62.8937 10.7238C62.8721 10.6875 62.8597 10.6458 62.8578 10.6029C62.8593 10.5539 62.8715 10.5059 62.8934 10.4628C63.0003 10.241 63.2853 10.0251 63.7786 9.87924L63.9513 9.81796C64.2665 9.7596 64.6063 9.68082 64.9461 9.59912L64.461 10.7225ZM61.1285 0.927314H55.9983L55.9051 1.14323L55.7215 1.55757L54.8609 3.53294H60.0131L61.1285 0.927314ZM53.455 3.07484L53.5345 2.8881L54.3978 0.927314H49.3141L47.8287 4.32076C47.0299 4.15982 46.2191 4.07583 45.4061 4.06982H44.9758C44.0972 4.06959 43.2279 4.26125 42.4217 4.63297C41.5995 4.9977 41.0952 5.46455 40.8294 6.01018L38.478 11.3819C38.4046 11.5337 38.3652 11.7015 38.3629 11.8721C38.37 12.0442 38.4183 12.2114 38.5032 12.358C38.5881 12.5046 38.7068 12.6256 38.848 12.7095C38.9636 12.8068 39.0907 12.8872 39.2262 12.9488C39.8058 13.1695 40.42 13.2686 41.0349 13.2406C41.6817 13.2406 42.2682 13.2085 42.7889 13.1735C43.3151 13.1093 43.7152 13.0451 44.0221 13.0101C44.1308 13.0276 44.232 13.0794 44.3126 13.1589H44.3291H49.0373L49.3114 12.5286L53.1152 3.81889L53.455 3.07484ZM46.9052 6.40993L44.9101 10.9209C44.8541 11.0366 44.7634 11.129 44.6525 11.1835C44.4967 11.25 44.3296 11.2808 44.1619 11.274C44.0438 11.2801 43.9257 11.2622 43.8138 11.2214C43.7882 11.2099 43.7656 11.1919 43.7481 11.1689C43.7346 11.1518 43.7277 11.1299 43.7289 11.1076C43.7321 11.0645 43.7442 11.0226 43.7645 10.9851L45.7678 6.372C45.8465 6.25517 45.9536 6.16337 46.0775 6.10647C46.2164 6.04782 46.3639 6.01619 46.5133 6.0131C46.5847 6.01014 46.656 6.02 46.7243 6.04228C46.7767 6.06007 46.8221 6.09602 46.8531 6.1444C46.8729 6.16161 46.8886 6.18349 46.8991 6.20831C46.9096 6.23313 46.9145 6.2602 46.9134 6.28738C46.9177 6.32817 46.9168 6.3694 46.9107 6.40993H46.9052ZM54.3046 4.77886L54.2882 4.81971L50.635 13.1822H55.7955L59.4623 4.77886H54.3046ZM83.8037 5.97517C83.8326 5.87395 83.8474 5.76876 83.8476 5.66296C83.8484 5.47699 83.7905 5.29611 83.6831 5.14942C83.615 5.01722 83.5134 4.90804 83.3899 4.8343C82.9432 4.46665 82.2389 4.30325 81.2304 4.30325C80.4874 4.30375 79.7452 4.35247 79.0078 4.44914L77.495 4.62421C77.125 4.66214 76.8894 4.68257 76.7989 4.68257C76.7436 4.6836 76.6885 4.67772 76.6345 4.66506C76.601 4.6582 76.5698 4.6421 76.544 4.61838C76.5276 4.60814 76.5135 4.59422 76.5026 4.5776C76.4917 4.56098 76.4844 4.54204 76.481 4.52209C76.4794 4.51539 76.4794 4.50836 76.481 4.50166L76.5303 4.39954H73.2828L69.4187 13.1822H74.5161L77.421 6.57333C77.4773 6.44891 77.575 6.35117 77.6951 6.29905C77.8478 6.2278 78.0135 6.1939 78.1801 6.19984C78.2842 6.19376 78.3881 6.21271 78.4843 6.25528C78.5089 6.26742 78.5298 6.28662 78.5446 6.31072C78.5565 6.33072 78.5623 6.35419 78.5611 6.37783C78.5597 6.42557 78.5485 6.4724 78.5282 6.51497L75.5876 13.1822H80.6823L81.9785 10.206L82.0032 10.1331V10.0893L83.79 6.00435L83.8037 5.97517ZM39.6099 7.02559L40.8458 4.20113H40.7417C40.4728 4.19529 40.2038 4.20601 39.936 4.23322C39.4756 4.26824 39.1138 4.30033 38.7576 4.36452C38.4641 4.44494 38.175 4.54235 37.8916 4.65631L37.8066 4.38495H32.923L32.0707 6.34574C32.0448 6.4301 32.0146 6.51289 31.9802 6.59375L31.5938 7.43409L31.0457 8.67125L29.596 12.0093C29.596 12.0355 29.5631 12.0647 29.5439 12.0997L29.0753 13.1735H34.2329L36.4446 8.12562C36.5491 7.92228 36.6923 7.74436 36.865 7.6032C37.0377 7.46203 37.2361 7.36071 37.4476 7.3057C38.1357 7.08943 38.8517 6.99094 39.5688 7.01392L39.6099 7.02559Z" />
<path d="M99.5145 12.0178L95.2502 12.473C93.1016 12.7064 90.9229 12.9457 90.1172 13.0566L99.2733 13.4826C99.2549 13.359 99.2448 13.2342 99.2432 13.1091C99.2474 12.727 99.3406 12.3521 99.5145 12.0178Z" />
<path d="M102.539 7.43075C102.523 7.33309 102.53 7.23267 102.561 7.13897C102.677 6.81256 102.841 6.50742 103.046 6.23444V6.21693C103.047 6.20821 103.047 6.1994 103.046 6.19067C102.446 6.24319 100.503 6.40951 98.5376 6.58458C96.6466 6.7509 94.7255 6.92597 93.9883 7.01059L102.47 7.56789L102.517 7.47744V7.43075H102.539Z" />
<path d="M104.253 1.05488C104.311 0.985642 104.374 0.921261 104.442 0.862305C103.507 0.911908 98.3713 1.19786 98.2617 1.24162L103.935 1.58593C103.935 1.55675 103.962 1.52465 103.976 1.49839C104.048 1.33739 104.141 1.18808 104.253 1.05488Z" />
<path d="M116.611 6.22553C116.306 6.1029 115.987 6.02534 115.663 5.99502C115.569 5.99502 115.115 5.95417 115.115 5.95125C114.887 5.95125 114.588 5.95125 114.539 5.95125C114.106 5.95291 113.673 5.99194 113.245 6.06797C113.043 6.10495 112.843 6.15365 112.645 6.21386C112.437 6.28097 112.352 6.2868 112.188 6.33641C111.942 6.42655 111.707 6.54493 111.486 6.68947L111.261 6.8266C111.143 6.88788 111.028 6.91998 110.957 6.95207C110.816 6.97361 110.684 7.03967 110.579 7.14173L110.549 7.16799L110.291 7.41601L110.667 6.96082C110.538 6.97844 110.416 7.02956 110.31 7.10963C110.149 7.23802 109.875 7.49187 109.875 7.49187C109.896 7.43764 109.921 7.385 109.949 7.33431C109.97 7.2984 109.994 7.26426 110.02 7.23218C110.094 7.14465 110.294 6.96958 110.294 6.96958C110.202 6.97448 110.111 6.98422 110.02 6.99876C109.942 7.00394 109.864 7.01963 109.79 7.04544L109.664 7.0221C109.562 7.01567 109.466 6.97359 109.39 6.90247C109.338 6.83202 109.292 6.75793 109.25 6.68071C109.225 6.63986 109.184 6.61652 109.173 6.57275C109.173 6.56789 109.173 6.56302 109.173 6.55816C109.184 6.45928 109.203 6.36164 109.231 6.26638C109.23 6.25375 109.23 6.24108 109.231 6.22845C109.205 6.23429 109.179 6.23429 109.154 6.22845C109.11 6.21105 109.069 6.1875 109.031 6.15842V6.138C109.058 6.09131 109.121 5.99794 109.173 5.99794H109.192C109.206 6.0041 109.222 6.0041 109.236 5.99794C109.271 5.99175 109.306 5.97994 109.337 5.96292C109.337 5.96292 109.442 5.80244 109.444 5.79369C109.447 5.78494 109.444 5.7791 109.444 5.7791L109.239 5.73825C109.239 5.73825 109.124 5.62446 109.135 5.58652C109.142 5.58407 109.149 5.58407 109.157 5.58652H109.209C109.275 5.60655 109.343 5.61638 109.411 5.6157C109.463 5.61652 109.515 5.61065 109.565 5.5982L109.639 5.534C109.639 5.51358 109.639 5.48732 109.595 5.4523C109.522 5.38626 109.459 5.30964 109.406 5.22471L109.422 5.2393C109.535 5.30325 109.656 5.34758 109.781 5.3706L109.968 5.321L110.023 5.28599L110.072 5.25681C110.072 5.23638 110.072 5.21888 110.039 5.20429C109.996 5.18604 109.956 5.16041 109.921 5.12842C109.86 5.07517 109.803 5.01661 109.751 4.95335C109.786 4.97889 109.821 5.00227 109.858 5.02338C109.96 5.0732 110.068 5.10757 110.179 5.12551L110.234 5.08174C110.277 5.04831 110.326 5.0254 110.379 5.01463H110.483L110.582 5.00004H110.727L110.834 4.96502L111.382 4.86874C111.563 4.83372 111.741 4.79871 111.897 4.76078C112.023 4.73477 112.145 4.69668 112.264 4.64698C112.522 4.57565 112.773 4.47794 113.013 4.3552C113.312 4.1924 113.604 4.0132 113.887 3.81832C114.113 3.68623 114.332 3.54008 114.542 3.38064C114.66 3.28507 114.774 3.1828 114.882 3.07427C114.986 2.9798 115.078 2.87087 115.156 2.75039C115.294 2.51172 115.367 2.23698 115.367 1.95674C115.367 1.88671 115.367 1.8196 115.367 1.75832C115.34 1.62327 115.299 1.49203 115.243 1.36733C115.167 1.17957 115.044 1.01795 114.887 0.900478C114.733 0.79166 114.556 0.724555 114.372 0.704983C114.266 0.690158 114.16 0.682362 114.054 0.681641C113.844 0.69731 113.637 0.735434 113.435 0.795436C113.196 0.874443 112.963 0.971966 112.738 1.08722C112.399 1.26552 112.079 1.48378 111.785 1.7379C111.357 2.06434 110.968 2.44445 110.626 2.87002C110.309 3.22877 110.026 3.61969 109.781 4.03715L109.751 4.08967L109.655 4.18304C109.593 4.21335 109.54 4.26321 109.505 4.32602V4.34061C109.423 4.38719 109.35 4.4484 109.288 4.52151C109.288 4.52151 109.244 4.57112 109.225 4.59446C109.121 4.66106 109.023 4.73721 108.932 4.82205C108.836 4.86284 108.744 4.91367 108.658 4.97378C108.641 4.97378 108.603 4.99129 108.576 5.00296C108.508 5.03825 108.438 5.06942 108.367 5.09633C108.228 5.14009 108.08 5.16052 107.912 5.21888C107.745 5.27723 107.438 5.44063 107.364 5.44939C107.29 5.45814 107.186 5.44939 107.134 5.46397H106.989C106.874 5.48729 106.76 5.51848 106.649 5.55735L106.537 5.57777C106.503 5.5802 106.469 5.5802 106.435 5.57777C106.369 5.55443 106.309 5.5165 106.249 5.49607C106.147 5.46106 106.082 5.42604 106.057 5.34726C106.065 5.31377 106.065 5.27863 106.057 5.24514C106.038 5.21012 106.027 5.20721 106.027 5.20721C106.046 5.18002 106.061 5.14941 106.071 5.11675C106.07 5.08113 106.064 5.04583 106.054 5.01171C105.933 5.14658 105.799 5.26782 105.654 5.37352C105.568 5.44134 105.467 5.48544 105.361 5.50191C105.314 5.50698 105.266 5.50698 105.218 5.50191L105.26 5.62154C105.179 5.64548 105.096 5.6563 105.013 5.65363C104.954 5.65497 104.895 5.6481 104.838 5.63321C104.761 5.60695 104.777 5.57193 104.777 5.57193L105.144 5.48148L105.197 5.38228L105.106 5.29766L104.764 5.21596L105.038 5.09925L104.437 4.86874C104.444 4.98172 104.463 5.09344 104.495 5.20137L104.465 5.2393C104.44 5.26905 104.417 5.30023 104.396 5.33267C104.356 5.40615 104.319 5.48215 104.287 5.56026C104.287 5.56026 104.226 5.65363 104.221 5.66822C104.185 5.74117 104.152 5.79661 104.119 5.85496C104.119 5.85496 104.029 5.99502 104.026 5.99502C103.928 6.1349 103.837 6.28001 103.752 6.42978C103.668 6.56671 103.599 6.71359 103.547 6.86745C103.515 6.95461 103.505 7.04934 103.519 7.14173C103.562 7.2886 103.554 7.44684 103.497 7.58816L103.443 7.62609L103.388 7.66402L103.275 7.74572L103.221 7.78949L103.111 7.87994C103.073 7.90912 103.04 7.94122 103.004 7.97331L102.955 8.02L102.862 8.12212L102.818 8.17464L102.741 8.27677C102.721 8.30357 102.703 8.33185 102.686 8.36139C102.654 8.41373 102.628 8.46947 102.607 8.5277C102.56 8.64159 102.53 8.76275 102.519 8.8866C102.519 8.92745 102.541 8.95954 102.541 9.00623C102.544 9.15499 102.532 9.30365 102.505 9.44974C102.506 9.54995 102.487 9.64921 102.451 9.74152C102.445 9.74905 102.438 9.75589 102.431 9.76195C102.42 9.77281 102.409 9.78451 102.398 9.79696C102.523 9.75727 102.652 9.73663 102.782 9.73569C102.85 9.73498 102.918 9.74084 102.985 9.75319C103.169 9.79113 103.292 9.85824 103.311 10.01H103.273C103.273 10.0479 103.303 10.1383 103.344 10.1529C103.36 10.1179 103.467 10.0625 103.481 10.0479C103.493 10.0377 103.504 10.026 103.514 10.0129L103.536 9.96911C103.567 9.93823 103.603 9.91353 103.643 9.89617C103.765 9.78615 103.901 9.69572 104.048 9.62773H104.106C104.158 9.57292 104.223 9.5354 104.295 9.51977H104.311C104.329 9.51767 104.346 9.51767 104.363 9.51977C104.399 9.52039 104.434 9.53373 104.462 9.5577C104.479 9.61022 104.561 9.57812 104.605 9.59563C104.648 9.61314 104.67 9.66566 104.709 9.70067C104.813 9.79696 104.942 9.86699 105.038 9.96328L105.084 10.01C105.14 10.0842 105.204 10.1517 105.273 10.2113C105.312 10.2423 105.347 10.2797 105.375 10.3222C105.41 10.3537 105.449 10.3784 105.493 10.3951C105.508 10.4113 105.523 10.4289 105.536 10.4476V10.5206C105.517 10.5702 105.498 10.6227 105.536 10.6548C105.535 10.6859 105.528 10.7164 105.517 10.7453C105.51 10.7809 105.506 10.817 105.503 10.8532C105.503 10.8736 105.503 10.8941 105.503 10.9145C105.503 10.9349 105.503 10.9962 105.503 11.037C105.503 11.0779 105.503 11.0691 105.503 11.0837C105.5 11.1313 105.5 11.1791 105.503 11.2267C105.51 11.3081 105.526 11.3884 105.55 11.466C105.681 11.8064 105.867 12.1203 106.098 12.3938C106.325 12.6647 106.586 12.9013 106.874 13.097C107.151 13.3294 107.462 13.5127 107.795 13.6398C108.039 13.7184 108.293 13.7587 108.548 13.7594C108.773 13.7592 108.997 13.7278 109.214 13.666C109.35 13.6289 109.48 13.5719 109.601 13.4968C109.683 13.453 109.773 13.4122 109.842 13.3713C110.039 13.2551 110.212 13.0984 110.351 12.9103L110.423 12.8023L110.453 12.744L110.478 12.6856L110.499 12.6273C110.499 12.6068 110.513 12.5864 110.519 12.566C110.534 12.5367 110.545 12.5053 110.552 12.4726C110.552 12.4522 110.552 12.4318 110.552 12.4084C110.552 12.3851 110.552 12.3617 110.552 12.3413C110.568 11.8745 110.258 11.641 109.984 11.466C109.71 11.2909 109.436 11.1538 109.162 11.0049C109.143 11.0049 108.932 10.8824 108.595 10.7132C108.402 10.6028 108.202 10.5053 107.997 10.4214H107.975H107.956H107.94H107.923H107.91H107.888H107.811H107.797H107.775C107.677 10.3681 107.572 10.3317 107.463 10.3134C107.412 10.3005 107.363 10.2798 107.318 10.2521C107.293 10.22 107.285 10.188 107.257 10.1529C107.131 10.1529 106.898 10.2142 106.753 10.2259H106.6H106.58H106.567H106.548H106.528H106.515H106.496H106.471C106.595 10.1049 106.742 10.0125 106.901 9.95452C106.948 9.95452 106.961 9.93702 106.953 9.9341H106.844C106.722 9.95151 106.605 9.99413 106.498 10.0596C106.464 10.0842 106.427 10.1038 106.389 10.1179C106.414 10.0823 106.442 10.0483 106.471 10.0158C106.546 9.95045 106.628 9.89373 106.715 9.84657C106.834 9.83042 106.943 9.76558 107.019 9.66566V9.65107C107.019 9.65107 106.937 9.65107 106.876 9.65107H106.704C106.641 9.65838 106.579 9.67406 106.52 9.69776L106.315 9.78529L105.961 9.92243L105.917 9.93702C106.05 9.80963 106.201 9.70525 106.364 9.62773C106.492 9.54666 106.63 9.48665 106.775 9.44974C106.8 9.44242 106.827 9.44242 106.852 9.44974V9.39138C106.838 9.36675 106.83 9.33849 106.83 9.30968C106.83 9.28087 106.838 9.25262 106.852 9.22798C106.886 9.17541 106.927 9.12908 106.975 9.09085C107.128 8.99387 107.291 8.91557 107.46 8.85742C107.581 8.80198 107.704 8.74946 107.822 8.70277C107.94 8.65609 108.077 8.60357 108.192 8.55105C108.307 8.49852 108.422 8.42558 108.532 8.38181C108.648 8.30332 108.781 8.25532 108.918 8.24176C109.083 8.24176 109.433 8.21258 109.666 8.1834L109.91 8.1513C110.031 8.12434 110.154 8.10582 110.277 8.09586C110.36 8.09586 110.412 8.11921 110.513 8.12504C110.606 8.12199 110.698 8.13379 110.787 8.16006C110.903 8.19714 111.016 8.24397 111.124 8.30011C111.268 8.40379 111.425 8.48532 111.59 8.54229C112.261 8.70854 112.95 8.77434 113.637 8.73779H113.67C113.965 8.73067 114.258 8.70632 114.55 8.66484C114.937 8.61728 115.319 8.53529 115.693 8.41974C116.159 8.31051 116.576 8.0358 116.877 7.64068C116.994 7.46804 117.07 7.26783 117.099 7.05711C117.132 6.87842 117.1 6.69282 117.01 6.53826C116.919 6.38369 116.776 6.27183 116.611 6.22553Z" />
<path d="M104.383 3.88258C104.409 4.04063 104.47 4.18976 104.561 4.31733C104.658 4.4592 104.791 4.56778 104.945 4.62954C105.144 4.71182 105.359 4.74571 105.572 4.72875H105.657C105.657 4.72875 105.55 4.68206 105.383 4.62371C105.298 4.59634 105.215 4.56019 105.137 4.51575H105.649C105.486 4.49378 105.326 4.45568 105.17 4.40195L105.071 4.34943L105.479 4.38153C105.459 4.32138 105.443 4.25999 105.43 4.1977C105.502 4.21459 105.575 4.22339 105.649 4.22396C105.91 4.21711 106.166 4.14125 106.392 4.00323C106.619 3.8652 106.81 3.66933 106.948 3.43323C107.219 3.12158 107.448 2.77093 107.628 2.39156C107.67 2.30578 107.707 2.21707 107.737 2.12604C107.837 1.8345 107.894 1.5285 107.907 1.21859C107.911 1.01467 107.852 0.815017 107.74 0.649613C107.644 0.471929 107.49 0.337996 107.307 0.273212C107.197 0.241869 107.084 0.223282 106.97 0.217773C106.793 0.221215 106.617 0.242711 106.444 0.281966C106.006 0.393695 105.608 0.636725 105.296 0.982247C105.234 1.04774 105.18 1.12015 105.134 1.19817C105.088 1.26728 105.046 1.3394 105.008 1.41409C104.868 1.69772 104.745 1.99003 104.638 2.28944C104.591 2.42074 104.515 2.68335 104.515 2.68626C104.515 2.68918 104.462 2.88759 104.457 2.90218C104.383 3.14397 104.353 3.39829 104.367 3.65207C104.366 3.72927 104.371 3.8064 104.383 3.88258Z" />
<path d="M102.807 10.6312C102.832 10.567 102.906 10.4912 102.933 10.4241C102.903 10.4241 102.911 10.3365 102.933 10.3073C102.801 10.2149 102.651 10.156 102.495 10.1352C102.369 10.1139 102.241 10.1239 102.119 10.1644L102.01 10.2198C102.111 10.1983 102.214 10.1924 102.317 10.2023H102.33C102.646 10.2461 102.706 10.4503 102.706 10.4503C102.573 10.4005 102.436 10.3614 102.297 10.3336H102.265C102.128 10.3294 101.991 10.3412 101.856 10.3686L101.555 10.4649C101.756 10.4386 101.958 10.4317 102.16 10.4445C102.187 10.4489 102.214 10.4557 102.24 10.4649C102.353 10.5132 102.453 10.5892 102.533 10.6867C102.421 10.6084 102.294 10.5603 102.16 10.5466C102.125 10.5466 102.086 10.5466 102.043 10.5466C101.826 10.5405 101.609 10.576 101.404 10.6516C101.234 10.7033 101.075 10.7895 100.935 10.9055L100.9 10.9405C100.74 11.0944 100.605 11.2747 100.5 11.4745C100.305 11.8079 100.194 12.1885 100.176 12.5803C100.172 12.7576 100.192 12.9346 100.237 13.1055C100.269 13.301 100.367 13.4771 100.513 13.6003C100.659 13.7236 100.843 13.7853 101.029 13.7737C101.285 13.8053 101.544 13.7454 101.766 13.6033C101.987 13.4613 102.157 13.2452 102.251 12.9888C102.344 12.7612 102.41 12.5599 102.492 12.344C102.492 12.344 102.569 12.1602 102.604 12.0522C102.64 11.9442 102.676 11.883 102.7 11.81C102.782 11.614 102.839 11.4068 102.868 11.1944C102.871 11.1595 102.871 11.1242 102.868 11.0893C102.855 11.006 102.824 10.927 102.777 10.8588C102.777 10.7818 102.787 10.7052 102.807 10.6312Z" />
<path d="M113.883 3.26132L113.855 3.23214L113.995 3.10376L114.023 3.13586C114.023 3.13586 114.023 3.15045 114.05 3.13586C114.003 3.18546 113.946 3.22047 113.883 3.26132Z" fill="black"/>
<path d="M114.159 3.07469H114.082L114.055 3.03967L114.156 2.94922C114.176 2.97303 114.197 2.99545 114.219 3.01633L114.159 3.07469Z" fill="black"/>
<path d="M114.378 2.90236C114.353 2.87027 114.334 2.83817 114.32 2.81775L114.427 2.72729C114.435 2.73869 114.443 2.74943 114.452 2.75939H114.482H114.523C114.477 2.81191 114.43 2.8586 114.378 2.90236Z" fill="black"/>
<path d="M114.576 2.70958H114.499L114.469 2.6804L114.543 2.61621L114.598 2.6804L114.576 2.70958Z" fill="black"/>
<path d="M114.756 2.50849C114.743 2.53073 114.727 2.55129 114.709 2.56977L114.664 2.51433L114.759 2.43555L114.776 2.45889L114.756 2.50849Z" fill="black"/>
<path d="M114.874 1.7437C114.801 1.73934 114.729 1.74822 114.66 1.76996C114.632 1.76996 114.602 1.79038 114.605 1.81373C114.608 1.83707 114.66 1.81373 114.687 1.83123C114.762 1.83105 114.835 1.85007 114.901 1.88667C114.905 1.9775 114.9 2.06854 114.885 2.15803C114.813 2.07437 114.718 2.01694 114.614 1.99389C114.509 1.97085 114.401 1.98336 114.304 2.02965C114.271 2.02965 114.243 2.05591 114.246 2.08217C114.249 2.10843 114.306 2.08217 114.334 2.08217C114.411 2.06986 114.489 2.0835 114.559 2.12117C114.628 2.15885 114.684 2.21867 114.72 2.29225C114.641 2.35353 114.556 2.42355 114.526 2.44981C114.439 2.36335 114.331 2.30695 114.213 2.28818C114.096 2.26941 113.977 2.28915 113.871 2.34477C113.835 2.34477 113.802 2.37687 113.808 2.40313C113.813 2.42939 113.876 2.40313 113.909 2.40313C113.991 2.38746 114.076 2.3976 114.153 2.43231C114.23 2.46702 114.295 2.52481 114.342 2.59862C114.257 2.67449 114.158 2.75619 114.123 2.78536C114.019 2.69864 113.893 2.64724 113.762 2.63787C113.63 2.6285 113.499 2.6616 113.385 2.73284C113.347 2.73284 113.314 2.77078 113.32 2.79704C113.325 2.8233 113.396 2.79704 113.429 2.79704C113.533 2.77369 113.818 2.75035 113.925 2.97211L113.651 3.22012C113.534 3.13936 113.398 3.09639 113.258 3.09639C113.118 3.09639 112.982 3.13936 112.865 3.22012C112.824 3.23763 112.791 3.26389 112.799 3.29015C112.807 3.31641 112.878 3.29015 112.914 3.27264C113.024 3.24055 113.322 3.19678 113.449 3.4127C113.372 3.47981 113.27 3.56151 113.174 3.65196L113.155 3.63737C113.004 3.56544 112.837 3.5391 112.673 3.56123C112.509 3.58335 112.353 3.65309 112.223 3.76284C112.206 3.77182 112.191 3.78363 112.177 3.79785L112.023 3.77451C112.906 2.9727 113.84 2.23755 114.819 1.57446C114.841 1.62914 114.86 1.68575 114.874 1.7437Z" fill="black"/>
<path d="M114.389 1.36472C114.397 1.37065 114.406 1.37384 114.415 1.37384C114.425 1.37384 114.434 1.37065 114.442 1.36472C114.449 1.36098 114.455 1.35519 114.459 1.34798C114.464 1.34078 114.466 1.33244 114.466 1.32388C114.468 1.31225 114.468 1.30049 114.466 1.28886C114.466 1.27135 114.466 1.25385 114.447 1.23926H114.469C114.524 1.261 114.576 1.28939 114.625 1.32388L114.664 1.35597C114.662 1.36562 114.662 1.3755 114.664 1.38515C114.66 1.4074 114.66 1.43001 114.664 1.45226C114.664 1.45226 114.664 1.45226 114.664 1.46685L114.458 1.60399C114.444 1.57771 114.426 1.55483 114.403 1.53688C114.397 1.53329 114.391 1.5314 114.384 1.5314C114.377 1.5314 114.371 1.53329 114.365 1.53688C114.358 1.5406 114.352 1.546 114.348 1.5526C114.344 1.55921 114.341 1.56683 114.34 1.57481C114.336 1.60868 114.336 1.64306 114.34 1.67693L114.088 1.85492C114.071 1.82978 114.051 1.80721 114.028 1.78781C114.022 1.78423 114.015 1.78234 114.009 1.78234C114.002 1.78234 113.995 1.78423 113.989 1.78781C113.983 1.79069 113.977 1.79555 113.973 1.80178C113.97 1.80802 113.967 1.81534 113.967 1.82282C113.966 1.86036 113.97 1.8979 113.981 1.9337L113.658 2.17005C113.639 2.17005 113.611 2.1292 113.586 2.11169C113.581 2.10885 113.575 2.10737 113.569 2.10737C113.563 2.10737 113.556 2.10885 113.551 2.11169C113.536 2.12057 113.524 2.1351 113.518 2.15254C113.517 2.16611 113.517 2.17982 113.518 2.19339C113.527 2.21692 113.538 2.23942 113.551 2.2605L113.167 2.55228C113.132 2.54449 113.098 2.52856 113.069 2.5056C113.069 2.5056 113.027 2.48226 113.014 2.48809C112.997 2.49887 112.985 2.51534 112.978 2.53478C112.991 2.54199 113.005 2.54785 113.019 2.55228C113.031 2.57794 113.047 2.60154 113.066 2.62231C112.89 2.76237 112.712 2.9141 112.534 3.05707C112.488 3.03383 112.441 3.01526 112.392 3.00163C112.383 2.99902 112.373 2.99902 112.364 3.00163C112.357 3.0052 112.35 3.01045 112.345 3.01701C112.34 3.02357 112.336 3.03127 112.334 3.03956C112.333 3.05119 112.333 3.06295 112.334 3.07458C112.333 3.08135 112.333 3.08823 112.334 3.095C112.348 3.12019 112.364 3.14455 112.381 3.16795C112.194 3.32551 111.991 3.51225 111.794 3.69316C111.658 3.65658 111.532 3.58323 111.43 3.48016C111.564 3.36344 111.704 3.24965 111.833 3.14169C111.836 3.16574 111.843 3.18923 111.852 3.21171V3.22922C111.861 3.23791 111.872 3.24393 111.885 3.24673H111.904C111.91 3.24443 111.916 3.2406 111.921 3.23554C111.925 3.23048 111.929 3.22432 111.931 3.21755C111.934 3.20511 111.934 3.19206 111.931 3.17962C111.931 3.13002 111.931 3.08333 111.945 3.03664C112.137 2.87908 112.331 2.72152 112.523 2.57271C112.526 2.59484 112.531 2.61646 112.54 2.6369L112.553 2.65441C112.561 2.65651 112.57 2.65651 112.578 2.65441C112.586 2.65663 112.595 2.65663 112.603 2.65441C112.61 2.65109 112.617 2.64548 112.622 2.63824C112.627 2.631 112.63 2.62244 112.63 2.61356C112.64 2.56165 112.647 2.50897 112.649 2.456L113.069 2.14087C113.073 2.1654 113.082 2.18902 113.093 2.2109C113.099 2.225 113.11 2.23635 113.123 2.24299C113.128 2.24581 113.134 2.24727 113.14 2.24727C113.146 2.24727 113.151 2.24581 113.156 2.24299C113.186 2.22549 113.186 2.16713 113.186 2.16713V2.0475L113.567 1.82574C113.577 1.85078 113.591 1.87359 113.608 1.89285H113.628C113.638 1.8957 113.65 1.8957 113.66 1.89285C113.669 1.88882 113.676 1.88224 113.681 1.87393C113.686 1.86562 113.688 1.85596 113.688 1.84617C113.691 1.81024 113.691 1.77414 113.688 1.73821L113.992 1.53104C114.008 1.56293 114.033 1.58852 114.063 1.60399C114.074 1.60683 114.085 1.60683 114.096 1.60399C114.105 1.59996 114.112 1.59337 114.117 1.58506C114.121 1.57676 114.124 1.5671 114.124 1.5573C114.126 1.54187 114.126 1.52605 114.124 1.51062L114.107 1.46393C114.187 1.40849 114.272 1.35597 114.351 1.30345C114.361 1.32577 114.374 1.34642 114.389 1.36472Z" fill="black"/>
<path d="M111.299 3.17646C111.502 2.95821 111.646 2.68479 111.715 2.38572C111.814 2.29235 111.918 2.20774 112.019 2.12896C112.074 2.07935 112.151 2.01808 112.239 1.95097C112.214 2.1237 112.161 2.29054 112.082 2.44408C112.055 2.4966 111.959 2.60164 111.995 2.61915C112.03 2.63666 112.077 2.5783 112.118 2.51995C112.296 2.31458 112.418 2.06137 112.471 1.78757C112.581 1.71056 112.695 1.63947 112.811 1.57457C112.797 1.71603 112.761 1.85402 112.704 1.98306C112.682 2.03267 112.598 2.13479 112.633 2.14938C112.669 2.16397 112.707 2.10561 112.746 2.05017C112.86 1.88251 112.941 1.69193 112.984 1.48995C113.088 1.44035 113.195 1.39074 113.305 1.34406C113.292 1.43153 113.272 1.51753 113.244 1.60083C113.225 1.65043 113.154 1.75255 113.189 1.76131C113.225 1.77006 113.258 1.71754 113.291 1.6621C113.358 1.54656 113.411 1.42193 113.447 1.29154C113.535 1.25525 113.627 1.23075 113.721 1.21859L113.702 1.28862C113.686 1.3353 113.614 1.43743 113.647 1.44618C113.68 1.45494 113.718 1.40241 113.749 1.34698C113.778 1.29637 113.805 1.24374 113.828 1.18941H113.864C113.923 1.17726 113.984 1.1714 114.045 1.17191C114.041 1.17605 114.04 1.18119 114.04 1.18649C114.04 1.1918 114.041 1.19694 114.045 1.20108C114.054 1.2012 114.064 1.19888 114.072 1.19431C114.081 1.18974 114.088 1.18306 114.094 1.17482H114.225C113.206 1.81093 112.231 2.52577 111.309 3.3136C111.292 3.28103 111.277 3.24685 111.266 3.21147L111.299 3.17646Z" fill="black"/>
<path d="M109.946 11.8894C109.99 11.9244 110.028 11.9565 110.061 11.9886L109.902 11.9361L109.946 11.8894Z" fill="black"/>
<path d="M109.803 11.7815L109.847 11.8136L109.784 11.8865L109.652 11.8427L109.696 11.7931L109.787 11.7727L109.803 11.7815Z" fill="black"/>
<path d="M109.595 11.6558L109.726 11.7316H109.699H109.682C109.67 11.7366 109.659 11.7446 109.65 11.755L109.606 11.8017L109.496 11.7579C109.526 11.7316 109.562 11.6937 109.595 11.6558Z" fill="black"/>
<path d="M109.488 11.5974L109.378 11.7258L109.266 11.6761C109.307 11.6295 109.312 11.6236 109.34 11.612L109.46 11.5857L109.488 11.5974Z" fill="black"/>
<path d="M109.221 11.4514C109.279 11.4806 109.336 11.5098 109.391 11.5419H109.333H109.311L109.281 11.5652L109.224 11.6265L109.098 11.5594C109.137 11.5214 109.178 11.4853 109.221 11.4514Z" fill="black"/>
<path d="M109.103 11.3871C109.062 11.4338 109.007 11.4863 108.98 11.5126L108.859 11.4367C108.878 11.415 108.899 11.3963 108.922 11.3813L109.043 11.3579L109.103 11.3871Z" fill="black"/>
<path d="M108.791 11.2295L108.967 11.317H108.939H108.915C108.9 11.3233 108.887 11.3322 108.876 11.3433C108.858 11.3624 108.839 11.38 108.819 11.3958L108.695 11.3083L108.791 11.2295Z" fill="black"/>
<path d="M108.608 11.1365L108.68 11.1715L108.581 11.2561C108.551 11.2211 108.524 11.2065 108.496 11.1715L108.608 11.1365Z" fill="black"/>
<path d="M108.361 11.014C108.394 11.0315 108.426 11.051 108.457 11.0723H108.476H108.493H108.517H108.482C108.469 11.0784 108.457 11.0862 108.446 11.0957C108.405 11.0572 108.365 11.0162 108.328 10.9731L108.361 11.014Z" fill="black"/>
<path d="M107.603 11.1887C107.624 11.1831 107.645 11.1753 107.666 11.1654L107.94 11.0778C107.953 11.0778 107.973 11.0778 107.995 11.0778L108.06 11.0632C108.079 11.0975 108.099 11.1306 108.121 11.1624L108.159 11.2062C108.197 11.2471 108.236 11.2879 108.274 11.3229L108.312 11.355C108.126 11.484 107.91 11.5539 107.688 11.5563C107.652 11.5563 107.608 11.5301 107.572 11.5563C107.537 11.5826 107.559 11.6001 107.592 11.606C107.625 11.6118 107.901 11.7402 108.43 11.4484L108.51 11.5067L108.562 11.5447L108.658 11.6089L108.688 11.6293C108.504 11.7566 108.295 11.8365 108.077 11.8627C108.036 11.8627 107.981 11.8627 107.948 11.8861C107.915 11.9094 107.948 11.9269 107.984 11.9298C108.28 11.9668 108.578 11.8891 108.825 11.711L108.915 11.7577L108.981 11.7927L109.077 11.8394C108.911 11.9607 108.725 12.0469 108.529 12.0932C108.485 12.0932 108.417 12.0932 108.392 12.137C108.367 12.1808 108.392 12.1691 108.447 12.1633C108.725 12.1581 108.995 12.069 109.228 11.9065L109.324 11.9473L109.398 11.9765L109.472 12.0028C109.323 12.1163 109.159 12.2031 108.984 12.2595C108.94 12.2771 108.861 12.28 108.844 12.315C108.828 12.35 108.866 12.3442 108.913 12.3354C109.168 12.2979 109.412 12.198 109.625 12.0436C109.653 12.0436 109.68 12.0641 109.707 12.0699L109.79 12.0961L109.866 12.1195H109.913C109.771 12.2357 109.611 12.3264 109.442 12.3879C109.4 12.4084 109.315 12.4171 109.299 12.4521C109.283 12.4871 109.332 12.4784 109.379 12.4667C109.627 12.425 109.864 12.3254 110.072 12.1749L110.135 12.1924H110.19C110.193 12.2254 110.193 12.2586 110.19 12.2916C110.191 12.3169 110.191 12.3422 110.19 12.3675C110.115 12.4258 110.036 12.4776 109.954 12.5222C109.913 12.5484 109.822 12.5718 109.82 12.6039C109.817 12.6359 109.866 12.6039 109.916 12.6039C109.965 12.6039 110.039 12.5601 110.149 12.5076C110.111 12.5882 110.063 12.6628 110.006 12.7293C108.828 12.5163 107.715 11.9969 107.293 11.3784C107.387 11.3001 107.492 11.2363 107.603 11.1887Z" fill="black"/>
<path d="M107.03 11.7054H107.057C107.096 11.6879 107.134 11.6762 107.173 11.6616C107.18 11.6737 107.189 11.6845 107.2 11.6937C107.296 11.8026 107.403 11.9004 107.518 11.9855C107.495 11.9984 107.473 12.013 107.452 12.0293L107.43 12.0526C107.429 12.0593 107.429 12.0663 107.43 12.073C107.43 12.0876 107.43 12.1022 107.466 12.0905C107.501 12.0789 107.573 12.0555 107.614 12.0439C107.726 12.1204 107.842 12.1906 107.962 12.2539C107.938 12.2688 107.915 12.2854 107.893 12.3035C107.885 12.3106 107.878 12.3184 107.871 12.3269C107.871 12.3269 107.871 12.3415 107.871 12.3502C107.886 12.3545 107.901 12.3545 107.915 12.3502H107.943L107.984 12.3327L108.058 12.3065C108.169 12.3629 108.287 12.4154 108.411 12.464C108.388 12.4834 108.366 12.5059 108.348 12.5311C108.348 12.5311 108.348 12.5603 108.4 12.5486C108.439 12.5339 108.477 12.5153 108.513 12.4932C108.625 12.5341 108.746 12.5749 108.869 12.6128C108.848 12.6354 108.831 12.6609 108.817 12.6887C108.817 12.6887 108.817 12.6887 108.817 12.7062C108.817 12.7237 108.839 12.7325 108.874 12.7062C108.91 12.6879 108.943 12.6654 108.973 12.6391L109.288 12.7237C109.273 12.7467 109.261 12.7711 109.25 12.7967C109.249 12.8003 109.248 12.8042 109.248 12.808C109.249 12.8119 109.25 12.8156 109.252 12.819C109.254 12.8223 109.256 12.8252 109.259 12.8274C109.262 12.8296 109.265 12.831 109.269 12.8317C109.283 12.8375 109.299 12.8375 109.313 12.8317H109.327C109.357 12.8143 109.386 12.7927 109.412 12.7675L109.798 12.8521C109.786 12.8721 109.777 12.8937 109.771 12.9163C109.769 12.923 109.769 12.93 109.771 12.9367L109.658 13.0126L109.54 13.0768H109.516H109.453C109.476 13.0562 109.495 13.0303 109.507 13.0009C109.509 12.9982 109.509 12.9952 109.509 12.9922C109.509 12.9891 109.509 12.9861 109.507 12.9834C109.507 12.9688 109.472 12.9659 109.444 12.9834C109.4 13.0003 109.358 13.025 109.321 13.0563L109.025 12.9863C109.048 12.9662 109.067 12.9414 109.08 12.9134C109.082 12.9095 109.084 12.9049 109.084 12.9002C109.084 12.8956 109.082 12.891 109.08 12.8871C109.066 12.883 109.052 12.883 109.039 12.8871C108.994 12.9042 108.95 12.9267 108.91 12.9542C108.795 12.9221 108.683 12.8929 108.576 12.8579C108.599 12.8358 108.617 12.809 108.63 12.7792C108.63 12.7792 108.63 12.7587 108.63 12.7558C108.63 12.7529 108.609 12.7558 108.592 12.7558C108.549 12.7752 108.507 12.7976 108.466 12.8229C108.335 12.7821 108.208 12.7354 108.088 12.6887C108.088 12.6654 108.123 12.6391 108.134 12.6128C108.134 12.5895 108.115 12.5866 108.085 12.5924C108.047 12.6085 108.011 12.6323 107.981 12.6624C107.852 12.611 107.726 12.5526 107.603 12.4874C107.603 12.4699 107.603 12.4465 107.622 12.4261C107.628 12.4127 107.635 12.4 107.644 12.3882C107.644 12.3882 107.625 12.3648 107.6 12.3707H107.581C107.569 12.3756 107.558 12.3825 107.548 12.3911L107.485 12.4524C107.343 12.3741 107.207 12.2834 107.079 12.181C107.096 12.146 107.126 12.0993 107.142 12.0643C107.143 12.0555 107.143 12.0468 107.142 12.038C107.142 12.0205 107.142 12.0118 107.12 12.0118H107.096H107.082L107.052 12.0322L106.986 12.0905C106.945 12.0325 106.924 11.9616 106.926 11.8892C106.956 11.8192 106.992 11.7637 107.03 11.7054Z" fill="black"/>
<path d="M106.79 12.1807C107.283 12.6796 108.16 13.0152 109.292 13.2282C109.238 13.2571 109.181 13.2786 109.122 13.2924L109.032 13.3157C109.016 13.2856 108.996 13.2589 108.971 13.2369C108.963 13.2259 108.951 13.2182 108.937 13.215C108.924 13.2118 108.91 13.2134 108.897 13.2194C108.862 13.2398 108.897 13.2924 108.897 13.3128C108.899 13.3224 108.899 13.3323 108.897 13.342C108.789 13.3613 108.679 13.3721 108.569 13.3741C108.581 13.323 108.581 13.2694 108.568 13.2184C108.556 13.1674 108.531 13.1206 108.497 13.0823C108.486 13.0701 108.472 13.0621 108.456 13.0594C108.44 13.0568 108.424 13.0597 108.41 13.0677C108.369 13.091 108.41 13.1406 108.429 13.164C108.445 13.2309 108.445 13.3013 108.429 13.3682C108.309 13.3598 108.19 13.3412 108.073 13.3128C108.096 13.2481 108.102 13.1779 108.09 13.1099C108.077 13.0419 108.048 12.9788 108.004 12.9276C107.99 12.9177 107.973 12.9124 107.956 12.9124C107.939 12.9124 107.922 12.9177 107.908 12.9276C107.862 12.9568 107.925 12.9889 107.933 13.0152C107.964 13.1025 107.964 13.1992 107.933 13.2865H107.916C107.795 13.248 107.676 13.2022 107.56 13.1494C107.593 13.0868 107.607 13.0147 107.599 12.9434C107.591 12.872 107.562 12.8052 107.516 12.7526C107.505 12.7378 107.489 12.7277 107.472 12.724C107.454 12.7202 107.436 12.7231 107.42 12.7321C107.374 12.7613 107.434 12.7963 107.439 12.8226C107.454 12.9082 107.444 12.9964 107.412 13.0764C107.292 13.0139 107.178 12.9407 107.07 12.8576C107.112 12.8006 107.134 12.7285 107.129 12.6555C107.125 12.5826 107.095 12.5141 107.045 12.4637C107.033 12.4501 107.018 12.441 107.001 12.4378C106.984 12.4347 106.967 12.4376 106.952 12.4462C106.905 12.4724 106.952 12.5075 106.968 12.5337C106.978 12.6099 106.969 12.6875 106.941 12.7584C106.867 12.703 106.798 12.6475 106.735 12.595C106.73 12.4545 106.749 12.3142 106.79 12.1807Z" fill="black"/>
<path d="M116.034 7.86553C116.015 7.83635 115.984 7.81884 115.957 7.84218C115.93 7.86553 115.943 7.88012 115.957 7.90346C115.872 7.94139 115.782 7.97932 115.683 8.01434C115.659 7.94594 115.617 7.88624 115.562 7.84218C115.549 7.83027 115.533 7.82372 115.516 7.82372C115.499 7.82372 115.482 7.83027 115.469 7.84218C115.434 7.87136 115.499 7.90346 115.51 7.93264C115.53 7.9755 115.542 8.02205 115.546 8.06978L115.258 8.14856C115.255 8.08195 115.236 8.01736 115.202 7.9611C115.168 7.90484 115.122 7.85883 115.066 7.82759C115.051 7.8163 115.032 7.81028 115.013 7.81028C114.994 7.81028 114.975 7.8163 114.959 7.82759C114.921 7.86261 115.001 7.88887 115.017 7.91513C115.068 8.00203 115.092 8.1046 115.083 8.20691C114.946 8.23609 114.809 8.25943 114.663 8.27986C114.673 8.1935 114.655 8.1063 114.612 8.03223C114.569 7.95816 114.504 7.90151 114.428 7.87136C114.409 7.85794 114.387 7.85077 114.365 7.85077C114.342 7.85077 114.32 7.85794 114.302 7.87136C114.261 7.90929 114.354 7.93555 114.376 7.96473C114.436 8.06758 114.463 8.18844 114.452 8.30904C114.228 8.33822 114.028 8.35572 113.863 8.36448C113.859 8.26216 113.821 8.16469 113.756 8.08863C113.692 8.01257 113.605 7.96261 113.51 7.94723C113.486 7.93653 113.459 7.93253 113.434 7.93559C113.408 7.93865 113.383 7.94868 113.362 7.96473C113.318 8.0085 113.43 8.02017 113.46 8.04643C113.506 8.0857 113.544 8.13484 113.571 8.19065C113.598 8.24645 113.613 8.30767 113.617 8.37031H113.29C113.213 8.34446 113.14 8.30502 113.074 8.2536C112.954 8.16723 112.872 8.03404 112.844 7.88303C113.965 7.73133 115.098 7.70103 116.226 7.79258C116.162 7.80036 116.098 7.82468 116.034 7.86553Z" fill="black"/>
<path d="M116.588 7.39889C116.548 7.43751 116.51 7.47842 116.473 7.52144C116.386 7.52144 116.298 7.50101 116.199 7.49518C116.223 7.45679 116.242 7.41568 116.257 7.37263C116.257 7.35512 116.257 7.34345 116.257 7.33469C116.239 7.3353 116.221 7.34251 116.207 7.35512C116.166 7.39566 116.127 7.43851 116.09 7.4835L115.736 7.46308C115.746 7.42195 115.76 7.3819 115.777 7.34345C115.777 7.32886 115.777 7.31719 115.777 7.31427C115.768 7.31259 115.758 7.31302 115.748 7.31553C115.739 7.31804 115.73 7.32258 115.722 7.32886C115.707 7.34195 115.694 7.35661 115.681 7.37263C115.657 7.40139 115.636 7.43268 115.618 7.466H115.177C115.169 7.42655 115.169 7.38581 115.177 7.34637V7.32594C115.177 7.32594 115.177 7.29968 115.177 7.29676C115.166 7.29559 115.155 7.2968 115.145 7.30031C115.135 7.30382 115.125 7.30957 115.117 7.31719C115.107 7.32344 115.099 7.33133 115.092 7.34053L115.078 7.36095C115.057 7.39403 115.039 7.4292 115.024 7.466C114.81 7.466 114.593 7.466 114.366 7.49226C114.371 7.44186 114.371 7.39093 114.366 7.34053C114.366 7.34053 114.366 7.32594 114.349 7.32302C114.341 7.32182 114.332 7.32249 114.323 7.325C114.315 7.3275 114.307 7.33179 114.3 7.33761C114.287 7.34615 114.275 7.357 114.264 7.36971C114.259 7.37554 114.254 7.38247 114.251 7.39013C114.231 7.42409 114.212 7.45915 114.196 7.49518C113.862 7.51852 113.511 7.55353 113.146 7.5973V7.52435C113.146 7.49518 113.146 7.466 113.119 7.45433C113.101 7.45283 113.082 7.45797 113.067 7.46891C113.054 7.47896 113.042 7.49072 113.031 7.50393L113.018 7.52727C113 7.55762 112.987 7.58992 112.976 7.62356L112.875 7.63815C112.898 7.49359 112.944 7.35437 113.012 7.22673C113.341 7.17713 113.662 7.13628 113.971 7.1071C113.95 7.13192 113.931 7.15824 113.914 7.18588C113.913 7.19366 113.913 7.20145 113.914 7.20923C113.911 7.2217 113.911 7.23469 113.914 7.24716C113.916 7.24846 113.919 7.24913 113.922 7.24913C113.925 7.24913 113.928 7.24846 113.93 7.24716C113.944 7.25138 113.96 7.25138 113.974 7.24716C113.99 7.2389 114.005 7.22807 114.018 7.21506L114.16 7.08959C114.415 7.06917 114.662 7.05166 114.903 7.04291L114.848 7.11586C114.843 7.12495 114.838 7.13475 114.834 7.14503C114.832 7.15454 114.832 7.16471 114.834 7.17421C114.836 7.17769 114.838 7.18078 114.841 7.18329C114.844 7.18579 114.847 7.18767 114.851 7.1888C114.871 7.1896 114.891 7.1823 114.906 7.16838C114.961 7.13044 115.024 7.06917 115.073 7.02832C115.243 7.02832 115.41 7.02832 115.574 7.02832C115.551 7.05605 115.529 7.08528 115.509 7.11586C115.508 7.12751 115.508 7.13922 115.509 7.15087C115.507 7.15762 115.507 7.16455 115.509 7.17129C115.508 7.17669 115.509 7.18228 115.511 7.18708C115.514 7.19189 115.518 7.1956 115.522 7.19756C115.533 7.19702 115.544 7.19416 115.554 7.18915C115.564 7.18414 115.573 7.17707 115.58 7.16838H115.594C115.632 7.13044 115.676 7.09251 115.717 7.0575L116.112 7.07209C116.087 7.10393 116.067 7.13928 116.051 7.17713C116.05 7.18583 116.05 7.19469 116.051 7.20339C116.051 7.20869 116.053 7.21389 116.056 7.21813C116.059 7.22238 116.063 7.22541 116.068 7.22673C116.068 7.22673 116.106 7.22673 116.125 7.20047C116.166 7.16291 116.204 7.12297 116.24 7.08084L116.564 7.11002C116.536 7.15172 116.516 7.1981 116.503 7.24716C116.503 7.24716 116.503 7.26758 116.517 7.2705C116.528 7.27218 116.539 7.27091 116.549 7.26682C116.559 7.26274 116.568 7.25597 116.575 7.24716C116.593 7.22915 116.611 7.20964 116.627 7.1888L116.676 7.12169L116.783 7.13628C116.733 7.23507 116.667 7.3239 116.588 7.39889Z" fill="black"/>
<path d="M113.113 6.98714C113.238 6.83042 113.369 6.68044 113.508 6.53779C113.571 6.49291 113.631 6.4442 113.689 6.3919C113.886 6.36856 114.081 6.35397 114.27 6.34521C114.118 6.46736 113.956 6.57294 113.785 6.66034C113.727 6.68952 113.601 6.7187 113.593 6.75663C113.585 6.79456 113.648 6.77414 113.713 6.75663C113.996 6.67025 114.261 6.53093 114.497 6.34521H114.727C114.873 6.34521 115.018 6.34521 115.163 6.34521C115.04 6.43498 114.91 6.51401 114.774 6.58156C114.722 6.6049 114.612 6.62825 114.604 6.66326C114.596 6.69827 114.653 6.68368 114.714 6.66326C114.936 6.59587 115.147 6.49149 115.339 6.35397C115.432 6.35397 115.528 6.36856 115.613 6.38023L115.752 6.39774C115.665 6.45611 115.573 6.50779 115.478 6.55238C115.429 6.57572 115.325 6.59615 115.319 6.63116C115.314 6.66618 115.366 6.65159 115.421 6.63116C115.585 6.58234 115.743 6.51073 115.889 6.41816C116.013 6.43859 116.12 6.46485 116.218 6.49111L116.12 6.54946C116.073 6.57281 115.972 6.59615 115.969 6.63116C115.966 6.66618 116.018 6.64867 116.07 6.63116C116.154 6.59981 116.237 6.56378 116.317 6.5232L116.446 6.57572L116.531 6.61949C116.495 6.637 116.465 6.65451 116.462 6.67201C116.459 6.68952 116.514 6.6866 116.569 6.67201H116.588C116.623 6.69151 116.654 6.71881 116.678 6.75205C116.702 6.78528 116.719 6.82367 116.728 6.86459C115.523 6.75388 114.309 6.79502 113.113 6.98714Z" fill="black"/>
<path d="M107.149 0.626221C107.19 0.632552 107.23 0.644313 107.269 0.661235C107.337 0.686147 107.393 0.738549 107.425 0.807127C107.365 0.88072 107.308 0.957663 107.255 1.03764C107.217 1.10183 107.198 1.16018 107.255 1.15435C107.313 1.14851 107.368 1.0318 107.417 0.979279L107.486 0.906333C107.523 0.980561 107.546 1.06184 107.554 1.1456C107.388 1.29318 107.241 1.46396 107.118 1.6533C107.08 1.71457 107.058 1.77293 107.118 1.76709C107.179 1.76126 107.231 1.64455 107.28 1.59494C107.367 1.49931 107.458 1.40873 107.554 1.32358C107.542 1.45173 107.52 1.57859 107.488 1.7029C107.228 1.88291 107.002 2.11356 106.822 2.38276C106.784 2.44403 106.762 2.49947 106.809 2.49655C106.855 2.49364 106.924 2.37984 106.973 2.32732C107.114 2.18018 107.266 2.04643 107.428 1.92758L107.412 1.97426C107.385 2.05269 107.355 2.12963 107.321 2.20477C107.28 2.2923 107.228 2.38859 107.17 2.49655C107.038 2.59236 106.914 2.70077 106.8 2.82043C106.74 2.78834 106.674 2.75624 106.598 2.72414C106.924 2.0766 107.112 1.36021 107.149 0.626221Z" fill="black"/>
<path d="M106.332 1.91604H106.203C106.247 1.77599 106.283 1.62426 106.313 1.50171C106.373 1.47838 106.43 1.44488 106.48 1.4025C106.488 1.39549 106.495 1.38767 106.502 1.37916C106.502 1.36165 106.502 1.33831 106.477 1.33831H106.444C106.404 1.3459 106.365 1.35663 106.326 1.37041C106.346 1.26537 106.359 1.15741 106.37 1.05528C106.415 1.0317 106.458 1.0054 106.499 0.9765C106.515 0.966125 106.529 0.952203 106.54 0.93565C106.54 0.93565 106.54 0.93565 106.54 0.918143C106.54 0.900636 106.527 0.891883 106.507 0.891883H106.491C106.451 0.901436 106.411 0.914114 106.373 0.929815C106.373 0.848115 106.373 0.769334 106.373 0.690552C106.422 0.673045 106.469 0.65262 106.518 0.638031C106.57 0.624524 106.622 0.613812 106.675 0.605935C106.734 0.598152 106.793 0.598152 106.853 0.605935C106.853 0.690552 106.853 0.781005 106.853 0.871458C106.803 0.892492 106.755 0.918889 106.71 0.950239C106.696 0.960544 106.683 0.972272 106.672 0.985253C106.672 1.00568 106.672 1.01443 106.694 1.01443C106.716 1.01857 106.74 1.01857 106.762 1.01443L106.842 0.999843C106.828 1.11364 106.812 1.23035 106.787 1.34707C106.735 1.36963 106.684 1.39696 106.636 1.42876C106.62 1.4375 106.607 1.4506 106.598 1.4667C106.598 1.4842 106.598 1.49296 106.62 1.49587C106.641 1.49846 106.662 1.49846 106.683 1.49587H106.762C106.727 1.6476 106.685 1.78766 106.636 1.95398C106.584 1.9899 106.53 2.02301 106.474 2.05318C106.462 2.06252 106.45 2.07328 106.439 2.08528C106.439 2.10278 106.439 2.11737 106.439 2.12613C106.452 2.13043 106.467 2.13043 106.48 2.12613C106.52 2.11794 106.56 2.10523 106.598 2.0882C106.543 2.24636 106.48 2.40124 106.409 2.55213C106.409 2.58131 106.387 2.60173 106.376 2.62508C106.282 2.59291 106.186 2.56853 106.088 2.55213L106.129 2.52879L106.17 2.49377C106.17 2.47627 106.17 2.4646 106.148 2.46168H106.118C106.084 2.45874 106.051 2.45089 106.02 2.43834C106.078 2.3166 106.128 2.19085 106.17 2.06194C106.216 2.05013 106.261 2.03147 106.302 2.0065C106.314 2.00116 106.325 1.99322 106.335 1.98315C106.346 1.97492 106.356 1.96511 106.365 1.95398C106.359 1.93647 106.365 1.91604 106.332 1.91604Z" fill="black"/>
<path d="M104.986 2.40012L105.002 2.3476C105.183 2.32101 105.368 2.34933 105.534 2.4293C105.556 2.4468 105.551 2.511 105.608 2.49057C105.616 2.48857 105.624 2.48481 105.63 2.47953C105.637 2.47425 105.643 2.46757 105.647 2.4599C105.651 2.45223 105.653 2.44374 105.654 2.43496C105.655 2.42618 105.654 2.4173 105.652 2.40887C105.652 2.3476 105.572 2.14918 105.074 2.16669C105.112 2.07332 105.153 1.97411 105.197 1.87491C105.369 1.83728 105.547 1.84631 105.715 1.90117C105.745 1.90117 105.759 1.9712 105.816 1.94202C105.874 1.91284 105.857 1.88658 105.838 1.86324C105.819 1.83989 105.69 1.67358 105.274 1.70567C105.296 1.66482 105.315 1.62106 105.334 1.58312C105.364 1.5237 105.397 1.46622 105.433 1.41097C105.556 1.38977 105.682 1.38977 105.805 1.41097C105.847 1.41097 105.888 1.4489 105.934 1.41097C105.981 1.37304 105.953 1.36429 105.934 1.3497C105.817 1.28357 105.685 1.25518 105.553 1.268L105.575 1.24174C105.688 1.11654 105.816 1.00853 105.956 0.920775C106.006 0.886022 106.058 0.855764 106.112 0.830322C106.084 1.41137 105.952 1.98148 105.726 2.511C105.534 2.49495 105.342 2.49495 105.15 2.511L104.953 2.53726C104.962 2.49092 104.973 2.44513 104.986 2.40012Z" fill="black"/>
<path d="M101.028 11.3377C101.072 11.3172 101.119 11.2997 101.168 11.2822C101.156 11.3017 101.144 11.3202 101.13 11.3377C101.045 11.4323 100.954 11.5192 100.855 11.5974C100.906 11.5059 100.964 11.419 101.028 11.3377Z" fill="black"/>
<path d="M101.312 12.3239H101.334H101.4C101.379 12.4202 101.364 12.5176 101.353 12.6157C101.326 12.6247 101.299 12.6364 101.274 12.6507L101.252 12.6653V12.6828C101.252 12.6828 101.252 12.712 101.274 12.712H101.359C101.355 12.7907 101.355 12.8696 101.359 12.9484C101.322 12.9642 101.287 12.9848 101.255 13.0096V13.0242C101.255 13.0242 101.255 13.0563 101.282 13.0534C101.31 13.0497 101.338 13.0429 101.364 13.033C101.37 13.0928 101.38 13.1522 101.392 13.211L101.318 13.2577C101.307 13.262 101.298 13.2703 101.293 13.281C101.292 13.2868 101.292 13.2927 101.293 13.2985C101.293 13.2985 101.312 13.316 101.329 13.2985C101.358 13.2951 101.386 13.2883 101.414 13.2781C101.414 13.2781 101.414 13.3043 101.414 13.3189C101.31 13.3493 101.203 13.365 101.096 13.3656C101.096 13.3481 101.096 13.3277 101.096 13.3102C101.126 13.2981 101.154 13.2824 101.181 13.2635C101.19 13.259 101.197 13.252 101.203 13.2431C101.203 13.2431 101.203 13.2226 101.189 13.2226H101.151H101.079C101.079 13.1614 101.06 13.0943 101.055 13.0301C101.087 13.0165 101.118 12.9999 101.148 12.9805C101.148 12.9805 101.167 12.9659 101.17 12.9571C101.173 12.9484 101.17 12.9367 101.17 12.9367H101.134H101.066C101.059 12.8503 101.059 12.7634 101.066 12.677C101.079 12.6624 101.126 12.642 101.159 12.6186C101.164 12.6168 101.169 12.6137 101.172 12.6096C101.176 12.6056 101.179 12.6007 101.181 12.5953C101.181 12.5807 101.181 12.572 101.167 12.5661H101.142L101.066 12.5895C101.079 12.4803 101.1 12.3721 101.126 12.2656C101.16 12.233 101.198 12.2046 101.238 12.181H101.255C101.266 12.1755 101.274 12.1662 101.279 12.1547C101.282 12.1531 101.284 12.1509 101.285 12.1484C101.286 12.1459 101.287 12.143 101.287 12.1401C101.287 12.1372 101.286 12.1344 101.285 12.1318C101.284 12.1293 101.282 12.1271 101.279 12.1255H101.257C101.257 12.1255 101.225 12.1255 101.222 12.1255L101.156 12.1518C101.205 11.9873 101.265 11.8265 101.334 11.6703C101.381 11.6324 101.436 11.6237 101.485 11.5799C101.494 11.5745 101.502 11.5664 101.507 11.5566C101.509 11.5536 101.51 11.55 101.51 11.5463C101.51 11.5427 101.509 11.5391 101.507 11.5361C101.488 11.5334 101.468 11.5334 101.449 11.5361L101.378 11.5595L101.447 11.4311C101.474 11.3756 101.504 11.3173 101.537 11.2589C101.642 11.2242 101.749 11.196 101.858 11.1743C101.817 11.2502 101.773 11.326 101.737 11.4048C101.701 11.4836 101.636 11.6207 101.595 11.7229L101.534 11.7375C101.525 11.7352 101.516 11.7352 101.507 11.7375L101.477 11.7579C101.47 11.7641 101.464 11.7722 101.46 11.7812C101.46 11.7812 101.46 11.7987 101.46 11.8046C101.486 11.8166 101.512 11.8244 101.54 11.8279C101.494 11.9498 101.456 12.0746 101.425 12.2014L101.359 12.2189L101.329 12.2335H101.307C101.298 12.2392 101.292 12.2473 101.288 12.2568C101.288 12.2568 101.288 12.3239 101.312 12.3239Z" fill="black"/>
<path d="M102.425 11.4866C102.183 11.5275 102.098 11.3874 102.082 11.332C102.066 11.2766 102.082 11.2649 102.049 11.2736C102.038 11.278 102.029 11.286 102.022 11.2966C102.016 11.3071 102.013 11.3195 102.013 11.332C102.013 11.3874 101.972 11.6384 102.359 11.65C102.34 11.6967 102.323 11.7376 102.312 11.7726L102.285 11.8455L102.252 11.9418C102.252 11.9418 102.252 11.9652 102.252 11.9768C102.005 12.044 101.907 11.9156 101.882 11.866C101.857 11.8164 101.882 11.8076 101.849 11.8193C101.84 11.8226 101.832 11.8295 101.827 11.8386C101.822 11.8477 101.82 11.8585 101.822 11.8689C101.822 11.9156 101.808 12.1373 102.178 12.1257H102.192C102.183 12.1466 102.174 12.167 102.164 12.1869C102.14 12.257 102.116 12.3241 102.09 12.3883C102.033 12.4037 101.974 12.4037 101.917 12.3884C101.86 12.3731 101.807 12.343 101.764 12.3007C101.748 12.3007 101.748 12.2511 101.715 12.2628C101.71 12.2646 101.706 12.2675 101.703 12.2711C101.7 12.2747 101.698 12.2789 101.696 12.2836C101.694 12.2883 101.694 12.2933 101.694 12.2983C101.695 12.3032 101.696 12.3081 101.698 12.3124C101.698 12.3503 101.748 12.5196 102.046 12.5166L101.975 12.7092C101.886 12.7199 101.795 12.6995 101.717 12.6509C101.698 12.6509 101.687 12.61 101.66 12.6217C101.657 12.6241 101.654 12.6273 101.652 12.6312C101.65 12.635 101.649 12.6392 101.649 12.6436C101.649 12.6479 101.65 12.6522 101.652 12.656C101.654 12.6598 101.657 12.6631 101.66 12.6655C101.689 12.7134 101.73 12.7522 101.778 12.7778C101.827 12.8035 101.88 12.815 101.934 12.8113C101.911 12.8692 101.884 12.9248 101.852 12.9777C101.811 12.9753 101.771 12.9654 101.734 12.9485C101.712 12.9485 101.698 12.9164 101.671 12.931C101.643 12.9456 101.654 12.9572 101.671 12.9689C101.702 13.0077 101.741 13.0377 101.786 13.0564C101.732 13.1306 101.668 13.1947 101.594 13.2461C101.452 12.7121 101.594 12.079 101.923 11.3874L102.033 11.1774C102.039 11.1661 102.047 11.1554 102.055 11.1453C102.203 11.1797 102.343 11.2496 102.463 11.3495C102.452 11.402 102.438 11.4458 102.425 11.4866Z" fill="black"/>
</svg>
