<svg width="40" height="36" viewBox="0 0 40 36" fill="none" xmlns="http://www.w3.org/2000/svg">
<path d="M22.7161 0.71582C13.1883 0.71582 5.4403 8.47195 5.4403 17.9997V18.0569L2.01944 12.9052C1.6847 12.399 0.998893 12.2602 0.492703 12.5949C-0.0134861 12.9297 -0.15228 13.6155 0.182458 14.1217L5.14638 21.5921C5.326 21.8615 5.61175 22.0329 5.93016 22.0738C5.97915 22.0819 6.01997 22.0819 6.06895 22.0819C6.33838 22.0819 6.59964 21.9839 6.80374 21.7962L13.7026 15.5831C14.1517 15.1749 14.1925 14.4809 13.7843 14.0237C13.376 13.5747 12.6821 13.5338 12.2249 13.9421L7.64467 18.0814V17.9997C7.64467 9.68027 14.4048 2.92019 22.7161 2.92019C31.0274 2.92019 37.7956 9.68027 37.7956 17.9997C37.7956 26.3192 31.0355 33.0793 22.7242 33.0793C18.6992 33.0793 14.9109 31.5117 12.0697 28.6624C11.637 28.2297 10.9431 28.2297 10.5104 28.6624C10.0776 29.0951 10.0776 29.7891 10.5104 30.2218C13.7761 33.4875 18.1114 35.2837 22.7242 35.2837C32.2439 35.2837 40 27.5357 40 17.9997C40 8.46379 32.2439 0.71582 22.7161 0.71582Z"/>
</svg>
