<svg width="280" height="33" viewBox="0 0 280 33" fill="none" xmlns="http://www.w3.org/2000/svg">
<path d="M0.59 0.986998H16.611V5.094H6.362V25H0.59V0.986998ZM18.1072 21.448H19.1802C19.6735 21.448 20.1545 21.115 20.6232 20.449C21.1165 19.7583 21.5359 18.5497 21.8812 16.823C22.2265 15.0717 22.3992 12.7283 22.3992 9.793V7.092H36.3112V21.448H39.0862V29.958H34.6462V25H23.0282V29.958H18.1072V21.448ZM30.9092 21.559V10.496H26.8392V10.977C26.8392 13.4683 26.6542 15.6143 26.2842 17.415C25.9142 19.2157 25.3839 20.597 24.6932 21.559H30.9092ZM51.3453 25.37C45.006 25.37 41.8363 23.4337 41.8363 19.561V13.123C41.8363 10.8783 42.5517 9.25033 43.9823 8.239C45.4377 7.22767 47.67 6.722 50.6793 6.722C53.516 6.722 55.588 7.21533 56.8953 8.202C58.2273 9.164 58.8933 10.8043 58.8933 13.123V17.489H47.2753V19.117C47.2753 20.153 47.6453 20.893 48.3853 21.337C49.1253 21.781 50.4573 22.003 52.3813 22.003C54.1573 22.003 56.1553 21.744 58.3753 21.226V24.667C56.18 25.1357 53.8367 25.37 51.3453 25.37ZM53.7503 14.418V11.828C53.7503 11.236 53.5037 10.792 53.0103 10.496C52.5417 10.2 51.74 10.052 50.6053 10.052C49.298 10.052 48.4223 10.2 47.9783 10.496C47.5097 10.8167 47.2753 11.2607 47.2753 11.828V14.418H53.7503ZM76.5076 25.37C75.3236 25.37 74.2506 25.3207 73.2886 25.222C72.3513 25.1233 71.3276 24.963 70.2176 24.741V21.189C71.5743 21.485 72.6843 21.6947 73.5476 21.818C74.4356 21.9413 75.336 22.003 76.2486 22.003C77.6546 22.003 78.6413 21.7563 79.2086 21.263C79.776 20.745 80.0596 20.005 80.0596 19.043V17.563H72.7336V14.196H80.0596V13.123C80.0596 11.9883 79.776 11.199 79.2086 10.755C78.666 10.2863 77.7163 10.052 76.3596 10.052C75.4716 10.052 74.6206 10.1137 73.8066 10.237C73.0173 10.3603 71.9073 10.5947 70.4766 10.94V7.388C72.7213 6.944 75.04 6.722 77.4326 6.722C79.184 6.722 80.6023 6.84533 81.6876 7.092C82.7976 7.314 83.7103 7.906 84.4256 8.868C85.1656 9.80533 85.5356 11.2607 85.5356 13.234V19.191C85.5356 21.041 85.0793 22.4223 84.1666 23.335C83.254 24.2477 82.1686 24.815 80.9106 25.037C79.6773 25.259 78.2096 25.37 76.5076 25.37ZM94.0526 10.644H88.1326V7.092H105.375V10.644H99.4546V25H94.0526V10.644ZM113.546 25.37C111.869 25.37 110.611 25.222 109.772 24.926C108.958 24.6053 108.379 24.0503 108.033 23.261C107.713 22.447 107.552 21.2383 107.552 19.635C107.552 18.2043 107.725 17.082 108.07 16.268C108.44 15.454 109.02 14.8743 109.809 14.529C110.623 14.159 111.733 13.974 113.139 13.974H119.207V12.753C119.207 11.9883 119.096 11.421 118.874 11.051C118.677 10.681 118.295 10.422 117.727 10.274C117.185 10.126 116.358 10.052 115.248 10.052C113.719 10.052 111.622 10.2 108.958 10.496V7.092C110.907 6.84533 113.189 6.722 115.803 6.722C118.097 6.722 119.861 6.89467 121.094 7.24C122.352 7.58533 123.253 8.17733 123.795 9.016C124.338 9.85467 124.609 11.0757 124.609 12.679V25H119.318V23.372C118.899 24.0873 118.332 24.593 117.616 24.889C116.901 25.2097 115.544 25.37 113.546 25.37ZM115.655 22.003C116.741 22.003 117.518 21.966 117.986 21.892C118.332 21.8427 118.566 21.7687 118.689 21.67C118.837 21.5713 118.961 21.411 119.059 21.189C119.158 21.0163 119.207 20.7573 119.207 20.412V16.934H115.507C114.669 16.934 114.077 16.9957 113.731 17.119C113.386 17.2177 113.152 17.4397 113.028 17.785C112.905 18.1057 112.843 18.6853 112.843 19.524C112.843 20.338 112.905 20.9053 113.028 21.226C113.152 21.5467 113.386 21.7563 113.731 21.855C114.101 21.9537 114.743 22.003 115.655 22.003ZM136.261 21.448H137.334C137.828 21.448 138.309 21.115 138.777 20.449C139.271 19.7583 139.69 18.5497 140.035 16.823C140.381 15.0717 140.553 12.7283 140.553 9.793V7.092H154.465V21.448H157.24V29.958H152.8V25H141.182V29.958H136.261V21.448ZM149.063 21.559V10.496H144.993V10.977C144.993 13.4683 144.808 15.6143 144.438 17.415C144.068 19.2157 143.538 20.597 142.847 21.559H149.063ZM169.093 25.37C167.983 25.37 167.07 25.333 166.355 25.259C165.639 25.185 164.875 25.037 164.061 24.815C163.173 24.5683 162.457 24.223 161.915 23.779C161.372 23.3103 160.916 22.6567 160.546 21.818C160.176 21.004 159.991 20.0173 159.991 18.858V13.567C159.991 12.383 160.176 11.347 160.546 10.459C160.916 9.571 161.397 8.88033 161.989 8.387C162.507 7.96767 163.185 7.62233 164.024 7.351C164.887 7.055 165.726 6.87 166.54 6.796C167.477 6.74667 168.328 6.722 169.093 6.722C170.227 6.722 171.128 6.759 171.794 6.833C172.484 6.88233 173.237 7.03033 174.051 7.277C174.939 7.54833 175.654 7.91833 176.197 8.387C176.764 8.85567 177.245 9.52167 177.64 10.385C178.01 11.273 178.195 12.3337 178.195 13.567V18.858C178.195 19.968 178.01 20.9423 177.64 21.781C177.294 22.6197 176.838 23.2733 176.271 23.742C175.777 24.1613 175.099 24.5067 174.236 24.778C173.397 25.0247 172.571 25.185 171.757 25.259C171.017 25.333 170.129 25.37 169.093 25.37ZM169.093 22.003C170.104 22.003 170.869 21.929 171.387 21.781C171.905 21.6083 172.262 21.3493 172.46 21.004C172.682 20.6587 172.793 20.153 172.793 19.487V12.716C172.793 11.7293 172.534 11.0387 172.016 10.644C171.498 10.2493 170.523 10.052 169.093 10.052C167.662 10.052 166.688 10.2493 166.17 10.644C165.652 11.0387 165.393 11.7293 165.393 12.716V19.487C165.393 20.153 165.491 20.6587 165.689 21.004C165.911 21.3493 166.281 21.6083 166.799 21.781C167.317 21.929 168.081 22.003 169.093 22.003ZM182.405 7.092H187.511V8.868C187.832 8.07867 188.461 7.52367 189.398 7.203C190.335 6.88233 191.729 6.722 193.579 6.722C195.133 6.722 196.379 6.84533 197.316 7.092C198.278 7.33867 199.006 7.73333 199.499 8.276C199.968 8.81867 200.288 9.423 200.461 10.089C200.634 10.7303 200.72 11.6183 200.72 12.753V18.636C200.72 20.412 200.461 21.781 199.943 22.743C199.425 23.705 198.623 24.3833 197.538 24.778C196.477 25.1727 195.022 25.37 193.172 25.37C191.396 25.37 190.113 25.222 189.324 24.926C188.535 24.63 188.029 24.0503 187.807 23.187V32.696H182.405V7.092ZM191.507 22.003C192.568 22.003 193.369 21.929 193.912 21.781C194.455 21.633 194.825 21.374 195.022 21.004C195.219 20.634 195.318 20.079 195.318 19.339V12.716C195.318 11.902 195.232 11.3223 195.059 10.977C194.886 10.607 194.541 10.3603 194.023 10.237C193.505 10.1137 192.654 10.052 191.47 10.052C190.459 10.052 189.682 10.1383 189.139 10.311C188.621 10.4837 188.263 10.755 188.066 11.125C187.893 11.495 187.807 12.0253 187.807 12.716V19.339C187.807 20.079 187.893 20.634 188.066 21.004C188.263 21.374 188.621 21.633 189.139 21.781C189.657 21.929 190.446 22.003 191.507 22.003ZM213.536 25.37C212.426 25.37 211.513 25.333 210.798 25.259C210.083 25.185 209.318 25.037 208.504 24.815C207.616 24.5683 206.901 24.223 206.358 23.779C205.815 23.3103 205.359 22.6567 204.989 21.818C204.619 21.004 204.434 20.0173 204.434 18.858V13.567C204.434 12.383 204.619 11.347 204.989 10.459C205.359 9.571 205.84 8.88033 206.432 8.387C206.95 7.96767 207.628 7.62233 208.467 7.351C209.33 7.055 210.169 6.87 210.983 6.796C211.92 6.74667 212.771 6.722 213.536 6.722C214.671 6.722 215.571 6.759 216.237 6.833C216.928 6.88233 217.68 7.03033 218.494 7.277C219.382 7.54833 220.097 7.91833 220.64 8.387C221.207 8.85567 221.688 9.52167 222.083 10.385C222.453 11.273 222.638 12.3337 222.638 13.567V18.858C222.638 19.968 222.453 20.9423 222.083 21.781C221.738 22.6197 221.281 23.2733 220.714 23.742C220.221 24.1613 219.542 24.5067 218.679 24.778C217.84 25.0247 217.014 25.185 216.2 25.259C215.46 25.333 214.572 25.37 213.536 25.37ZM213.536 22.003C214.547 22.003 215.312 21.929 215.83 21.781C216.348 21.6083 216.706 21.3493 216.903 21.004C217.125 20.6587 217.236 20.153 217.236 19.487V12.716C217.236 11.7293 216.977 11.0387 216.459 10.644C215.941 10.2493 214.967 10.052 213.536 10.052C212.105 10.052 211.131 10.2493 210.613 10.644C210.095 11.0387 209.836 11.7293 209.836 12.716V19.487C209.836 20.153 209.935 20.6587 210.132 21.004C210.354 21.3493 210.724 21.6083 211.242 21.781C211.76 21.929 212.525 22.003 213.536 22.003ZM226.848 7.092H239.909V10.644H232.25V25H226.848V7.092ZM248.069 25.37C246.392 25.37 245.134 25.222 244.295 24.926C243.481 24.6053 242.901 24.0503 242.556 23.261C242.235 22.447 242.075 21.2383 242.075 19.635C242.075 18.2043 242.248 17.082 242.593 16.268C242.963 15.454 243.543 14.8743 244.332 14.529C245.146 14.159 246.256 13.974 247.662 13.974H253.73V12.753C253.73 11.9883 253.619 11.421 253.397 11.051C253.2 10.681 252.817 10.422 252.25 10.274C251.707 10.126 250.881 10.052 249.771 10.052C248.242 10.052 246.145 10.2 243.481 10.496V7.092C245.43 6.84533 247.711 6.722 250.326 6.722C252.62 6.722 254.384 6.89467 255.617 7.24C256.875 7.58533 257.775 8.17733 258.318 9.016C258.861 9.85467 259.132 11.0757 259.132 12.679V25H253.841V23.372C253.422 24.0873 252.854 24.593 252.139 24.889C251.424 25.2097 250.067 25.37 248.069 25.37ZM250.178 22.003C251.263 22.003 252.04 21.966 252.509 21.892C252.854 21.8427 253.089 21.7687 253.212 21.67C253.36 21.5713 253.483 21.411 253.582 21.189C253.681 21.0163 253.73 20.7573 253.73 20.412V16.934H250.03C249.191 16.934 248.599 16.9957 248.254 17.119C247.909 17.2177 247.674 17.4397 247.551 17.785C247.428 18.1057 247.366 18.6853 247.366 19.524C247.366 20.338 247.428 20.9053 247.551 21.226C247.674 21.5467 247.909 21.7563 248.254 21.855C248.624 21.9537 249.265 22.003 250.178 22.003ZM268.214 15.898C268.214 14.9853 268.399 14.1837 268.769 13.493C269.139 12.7777 269.632 12.198 270.249 11.754C270.693 11.4333 271.26 11.0633 271.951 10.644C273.307 9.80533 273.986 8.88033 273.986 7.869V6.13C273.986 5.43933 273.751 4.97067 273.283 4.724C272.814 4.47733 271.84 4.354 270.36 4.354C269.225 4.354 266.771 4.65 262.997 5.242V1.209C266.055 0.814332 268.744 0.616999 271.063 0.616999C272.321 0.616999 273.332 0.653999 274.097 0.727999C274.886 0.777332 275.638 0.900665 276.354 1.098C277.094 1.32 277.686 1.616 278.13 1.986C278.574 2.33133 278.931 2.81233 279.203 3.429C279.474 4.095 279.61 4.835 279.61 5.649V9.201C279.61 9.89167 279.4 10.5453 278.981 11.162C278.586 11.754 278.056 12.272 277.39 12.716C276.551 13.2587 275.922 13.6533 275.503 13.9C273.998 14.8373 273.246 15.6637 273.246 16.379V18.044H268.214V15.898ZM267.844 19.894H273.616V25H267.844V19.894Z" fill="white"/>
</svg>
